<svg width="1024" height="1024" viewBox="0 0 1024 1024" fill="none" xmlns="http://www.w3.org/2000/svg">
<g clip-path="url(#clip0_47_102)">
<rect width="1024" height="1024" rx="250" fill="url(#paint0_linear_47_102)"/>
<g filter="url(#filter0_d_47_102)">
<path fill-rule="evenodd" clip-rule="evenodd" d="M571.387 18.6851C628.493 26.5377 668.176 37.7047 716.573 59.54C743.696 71.7765 761.968 82.0668 793.506 102.864C848.045 138.826 892.205 181.993 921.618 228.092C947.954 269.366 965.612 307.827 971.253 336.196C973.732 348.666 969.944 364.081 962.99 369.813C952.746 378.259 940.102 376.069 925.627 363.346C914.801 353.83 907.187 344.378 890.956 320.305C860.125 274.577 815.388 237.49 764.388 215.381C740.847 205.175 720.812 201.413 690.207 201.45C654.321 201.494 626.173 206.337 572.457 221.709C532.828 233.05 526.688 234.366 516.302 233.75C507.434 233.224 502.747 231.349 497.167 226.098C492.334 221.553 490.567 217.848 490.567 212.27C490.567 195.411 541.868 201.348 591.5 189.491C606.826 185.83 601.419 155.456 605.019 150.878C608.581 146.35 607.936 142.236 602.917 137.461C590.626 125.767 565.476 119.838 539.169 122.436C501.782 126.126 472.931 136.472 433.612 160.286C408.548 175.468 401.38 178.028 394.247 174.346C388.911 171.591 385.336 165.88 386.07 161.282C386.823 156.567 390.459 152.828 402.007 144.89C412.962 137.359 416.122 133.5 416.122 127.645C416.122 124.328 415.435 122.879 412.709 120.443C400.606 109.628 379.268 116.223 338.731 143.306C314.008 159.825 294.592 177.766 288.75 189.491C285.709 195.595 285.254 203.526 287.676 208.209C290.818 214.287 295.839 214.055 309.231 207.216C317.061 203.216 320.889 201.863 324.372 201.863C336.368 201.863 341.837 211.55 336.3 222.989C333.317 229.153 326.616 235.834 312.642 246.577C285.948 267.1 267.158 288.303 242.688 325.513C226.698 349.829 218.382 357.095 206.548 357.095C196.57 357.095 192.37 351.628 193.19 339.709C193.542 334.592 195.116 329.59 199.843 318.554C206.836 302.228 208.309 294.416 205.439 288.868C200.434 279.187 181.158 283.588 167.529 297.523C160.161 305.057 142.194 330.719 131.964 348.318C119.35 370.021 96.5772 406.722 90.4113 415.287C79.0228 431.105 67.2617 439.914 59.9729 438.084C54.0704 436.602 48.534 428.292 46.315 417.582C43.6656 404.792 47.015 385.323 58.6905 345.649C75.7921 287.54 109.266 226.547 146.415 185.804C176.194 153.146 190.035 139.856 215.45 119.518C257.816 85.6168 311.178 56.9106 364.253 39.4701C390.907 30.7118 421.212 23.7885 450.005 19.8777C477.407 16.1575 485.419 15.7325 521.075 16.1125C548.221 16.4005 558.662 16.9347 571.387 18.6851ZM966.516 407.421C977.125 411.965 986.235 424.005 991.408 440.314C1001 470.564 1000.09 501.162 988.89 524.851C975.983 552.154 956.736 557.451 936.781 539.191C927.669 530.854 926.846 528.451 927.392 511.791C928.295 484.268 927.761 466.157 925.766 456.671C923.204 444.474 923.346 427.093 926.06 420.958C931.991 407.548 951.541 401.006 966.516 407.421ZM171.505 414.72C173.511 415.796 175.992 418.243 177.02 420.159C178.046 422.073 179.592 424.445 180.455 425.428C183.646 429.068 183.534 431.701 179.798 440.802C177.789 445.695 173.866 457.407 171.079 466.828C165.023 487.296 163.473 490.152 157.093 492.589C147.62 496.207 138.871 492.688 134.325 483.43C131.664 478.012 131.43 476.491 131.437 464.686C131.445 450.594 133.522 441.604 139.464 429.931C146.729 415.662 160.803 408.981 171.505 414.72ZM72.1215 476.577C79.5184 478.653 91.0536 487.709 94.0926 493.826C96.2335 498.135 96.3609 501.995 95.5667 538.555C95.2637 552.486 95.5527 556.032 97.745 565.32C100.579 577.315 101.027 592.622 98.7812 600.646C96.9657 607.127 91.3501 613.318 84.0389 616.895C75.8135 620.92 63.2132 621.191 56.2595 617.491C43.0608 610.472 35.8009 599.062 29.5977 575.593C26.337 563.254 24.9219 536.464 26.9237 524.966C30.8897 502.19 41.8255 483.206 54.3348 477.38C60.6976 474.417 63.9068 474.272 72.1215 476.577ZM967.029 588.604C975.226 594.032 979.645 609.993 977.588 626.739C976.21 637.973 968.402 669.129 961.858 689.505C952.963 717.206 935.632 755.037 919.749 781.422C904.493 806.766 893.01 821.871 868.655 848.632C823.041 898.751 772.44 936.393 713.757 963.857C667.014 985.733 619.246 999.547 568.166 1005.96C545.149 1008.85 492.345 1009.97 470.981 1008.03C432.485 1004.54 393.173 996.697 358.004 985.503C300.243 967.117 237.109 931.752 184.417 888.268C168.226 874.908 135.89 842.417 124.043 827.608C93.5167 789.446 63.8287 733.641 54.2299 696.376C47.4293 669.973 55.8816 650.427 74.1019 650.43C90.1865 650.433 105.276 664.407 132.475 704.493C160.444 745.714 192.973 774.743 240.258 800.681C267.561 815.657 293.081 822.522 325.182 823.523C363.699 824.725 400.573 818.598 458.453 801.379C494.137 790.763 503.98 789.131 514.265 792.121C530.917 796.962 537.857 810.932 529.557 822.908C520.556 835.897 488.41 851.343 456.313 858.1C440.71 861.384 425.944 867.198 420.814 872.078C414.888 877.717 415.052 882.015 421.417 887.883C437.58 902.782 468.978 906.78 507.701 898.87C537.225 892.838 561.309 882.797 591.725 863.839C616.109 848.64 624.84 846.269 632.3 852.82C634.345 854.615 636.557 857.717 637.215 859.713C639.316 866.074 635.361 871.005 619.672 881.594C608.234 889.313 604.571 896.644 608.995 902.961C611.411 906.411 618.606 909.455 624.417 909.483C636.954 909.544 656.364 900.849 682.461 883.484C702.899 869.884 711.476 862.971 723.096 850.731C734.223 839.012 737.307 833.218 737.307 824.035C737.307 817.866 737.025 817.008 734.179 814.561C729.932 810.907 725.776 811.686 712.393 818.645C702.719 823.676 701.48 824.055 697.132 823.32C690.325 822.169 685.39 817.029 685.39 811.087C685.39 800.979 690.584 794.185 709.343 779.751C735.683 759.485 756.772 735.94 780.187 700.653C792.958 681.407 800.126 673.434 807.921 669.806C817.884 665.167 827.096 668.155 830.005 676.97C832.098 683.314 830.514 690.89 823.889 706.213C818.876 717.81 817.608 721.926 817.254 727.741C816.84 734.583 816.976 735.089 820.066 738.179C823.869 741.982 827.55 742.326 836.397 739.705C844.826 737.207 850.37 733.609 857.405 726.068C865.201 717.712 883.692 690.825 894.7 671.841C919.997 628.21 933.446 607.926 944.441 596.823C954.887 586.273 960.452 584.248 967.029 588.604ZM246.79 696.376C238.253 701.201 224.837 698.221 211.156 688.466C199.173 679.921 189.395 666.62 181.252 647.784C176.72 637.305 165.518 602.074 162.437 588.616C156.233 561.516 158.087 544.201 168.147 535.288C172.476 531.452 185.258 526.507 189.104 527.181C194.161 528.068 202.578 533.642 206.392 538.629C210.509 544.014 216.374 558.889 221.234 576.276C224.651 588.499 228.117 596.659 238.466 616.842C256.849 652.694 260.932 672.858 253 688.597C250.894 692.774 249.029 695.111 246.79 696.376Z" fill="url(#paint1_linear_47_102)"/>
</g>
<g filter="url(#filter1_d_47_102)">
<mask id="path-3-outside-1_47_102" maskUnits="userSpaceOnUse" x="-70" y="34" width="937" height="1132" fill="black">
<rect fill="white" x="-70" y="34" width="937" height="1132"/>
<path d="M511.216 85.0681C517.857 72.362 546.212 60.5055 581.443 55.7017C612.844 51.4206 627.717 55.0393 634.375 68.5836C636.831 73.5795 637.236 76.4261 637.336 89.3417C637.422 100.339 637.996 105.527 639.503 108.894C640.631 111.415 641.444 116.013 641.309 119.111C641.106 123.789 641.742 125.589 645.059 129.717C650.037 135.911 652.123 140.386 651.18 142.844C650.78 143.886 648.181 145.898 645.403 147.315C640.718 149.705 640.348 150.274 640.307 155.167C640.284 158.07 639.519 163.557 638.608 167.364C637.603 171.563 637.192 178.037 637.564 183.828C638.163 193.157 638.092 193.458 634.371 197.179C630.696 200.854 630.182 200.985 619.416 200.985C602.664 200.985 597.025 202.007 596.195 205.195C595.816 206.653 591.801 213.739 587.273 220.943C577.17 237.012 577.161 238.644 587.079 254.399C590.829 260.354 594.87 267.147 596.062 269.493C597.944 273.208 598.382 273.481 599.435 271.6C600.451 269.784 601.772 269.567 607.712 270.244C631.5 272.956 651.585 284.122 663.321 301.163C665.899 304.906 669.853 312.665 672.109 318.405C676.209 328.844 676.209 328.844 686.659 333.954C710.85 345.785 718.677 366.522 713.838 405.972C713.096 412.031 712.778 417.277 713.132 417.632C713.807 418.306 735.04 405.69 745.758 398.246C760.316 388.133 772.233 373.692 778.679 358.349C782.782 348.586 782.472 345.579 776.485 337.044C773.624 332.965 769.188 325.241 766.628 319.88C762.545 311.33 761.989 309.055 762.096 301.361C762.249 290.497 763.76 287.511 769.954 285.843C774.774 284.545 774.774 284.545 775.326 276.9C775.978 267.894 777.917 265.85 785.812 265.85C791.878 265.85 821.64 271.553 825.024 273.364C830.344 276.212 838.69 294.061 838.69 302.595C838.69 306.715 831.261 344.506 828.783 352.991C828.11 355.294 825.391 360.065 822.74 363.594C815.203 373.622 807.905 386.858 798.003 408.454C778.721 450.512 762.113 475.158 737.262 498.599C721.798 513.184 713.098 518.449 704.461 518.449C699.846 518.449 697.241 517.767 695.361 516.066C693.913 514.756 692.454 513.958 692.118 514.292C691.784 514.627 688.685 535.908 685.235 561.582C681.785 587.256 669.874 748.447 669.57 749.304C676.874 746.829 679.604 747.807 693.071 757.722C700.972 763.537 701.354 764.039 699.099 765.618C696.12 767.705 690.941 775.899 691.958 776.917C692.369 777.327 695.496 775.052 698.908 771.861C703.477 767.588 706.11 766.059 708.906 766.059C713.401 766.059 713.872 768.356 710.08 771.789C707.29 774.312 703.374 781.028 704.69 781.028C705.121 781.028 708.283 778.502 711.717 775.415C716.013 771.553 719.063 769.802 721.495 769.802C726.604 769.802 726.955 771.573 722.69 775.838C719.513 779.016 717.633 783.523 719.486 783.523C719.788 783.523 722.628 781.278 725.799 778.534C729.706 775.152 732.746 773.544 735.231 773.544C739.606 773.544 739.812 774.902 736.179 779.816C732.094 785.342 734.375 785.712 740.95 780.589C749.693 773.777 755.928 774.669 752.046 782.177C749.131 787.814 749.702 788.164 754.397 783.613C758.587 779.551 758.813 779.49 765.936 780.506C774.865 781.779 784.46 781.375 800.323 779.06C818.295 776.437 833.344 776.699 838.298 779.719C845.078 783.852 848.356 792.593 845.6 799.188C838.103 817.132 794.498 844.612 755.286 856.106C743.09 859.68 740.4 860.012 722.057 860.199C700.355 860.42 696.888 861.133 684.553 867.909C680.391 870.194 673.655 873.219 669.584 874.63C660.361 877.826 636.123 882.068 627.091 882.068C610.554 882.068 603.927 873.385 606.96 855.693C608.337 847.666 608.194 846.363 604.273 831.273C596.811 802.547 596.612 798.99 602.259 795.29C606.012 792.83 607.809 793.746 612.827 800.675C610.602 779.687 627.091 621.788 599.898 597.304C584.388 583.339 585.299 528.678 584.388 507.351C583.595 488.767 583.595 488.767 574.661 500.491C551.886 530.375 525.644 556.881 502.026 573.862C483.755 586.997 482.836 588.041 478.872 600.155C472.017 621.102 442.931 689.474 429.405 716.439C404.312 766.457 381.332 797.942 348.459 827.34C340.456 834.497 336.352 839.387 331.72 847.283C311.271 882.142 307.28 885.395 275.283 893.287C250.686 899.355 247.035 900.858 206.299 921.673C150.508 950.18 114.663 970.424 79.4112 993.336C65.893 1002.12 63.9683 1003.79 64.6943 1006.06C66.9346 1013.07 66.7512 1015.59 63.609 1020.96C60.2809 1026.63 49.088 1037.62 42.9221 1041.27C40.9786 1042.41 38.4863 1045.25 37.3823 1047.56C35.6734 1051.14 34.9112 1051.65 32.2355 1050.98C29.6908 1050.34 29.2417 1050.57 29.8679 1052.2C30.292 1053.31 30.2883 1055.62 29.8579 1057.33C29.238 1059.8 28.2875 1060.45 25.2737 1060.45C22.1153 1060.45 21.5976 1060.85 22.2176 1062.8C22.628 1064.09 22.2787 1066.65 21.4429 1068.49C20.2592 1071.09 19.2999 1071.67 17.1207 1071.12C14.7057 1070.52 14.3353 1070.9 14.4201 1073.91C14.4825 1076.08 12.3593 1080.66 8.77554 1086.07C4.09277 1093.15 1.97843 1098.41 -2.68063 1114.55C-9.9817 1139.85 -11.1131 1142.49 -15.383 1144.11C-20.5497 1146.07 -30.277 1145.97 -32.7631 1143.92C-36.2009 1141.09 -41.334 1128.41 -45.8521 1111.59C-49.7914 1096.92 -50.0284 1094.89 -49.8588 1077.29C-49.6779 1058.61 -46.8662 1041.86 -41.8542 1029.61C-40.366 1025.97 -40.6766 1023.76 -45.0937 1006.53C-49.4296 989.608 -49.9798 985.798 -49.9997 972.505C-50.0247 954.999 -48.4504 948.514 -42.6338 942.167C-38.9165 938.11 -37.7776 937.604 -32.4188 937.618C-29.1007 937.626 -20.4923 939.257 -13.2886 941.241C0.387993 945.007 13.7402 945.922 25.5107 943.896C32.1744 942.75 36.6077 944.478 36.6077 948.224C36.6077 949.573 37.0418 950.676 37.5732 950.676C39.6675 950.676 58.6531 939.12 67.5084 932.453C89.0262 916.258 103.936 901.001 126.186 872.411C136.433 859.243 151.419 845.007 160.308 839.996C170.117 834.465 179.125 831.648 199.311 827.797C221.592 823.547 228.963 820.757 235.695 814.025C245.779 803.941 250.787 790.673 258.001 754.938C264.279 723.833 273.606 698.317 286.078 678.117C302.193 652.017 301.681 653.262 301.681 640.125C301.681 628.552 301.519 627.874 295.835 615.747C289.045 601.262 286.515 592.216 285.36 578.3C283.505 555.943 290.195 530.657 306.475 498.491C315.576 480.511 317.491 477.639 325.793 469.517C334.587 460.915 335.171 459.982 338.582 449.1C341.727 439.071 344.974 432.284 358.267 407.958C361.388 402.25 361.388 402.25 356.799 371.16L356.799 371.159C352.034 338.873 349.707 314.894 349.707 298.101C349.707 292.713 349.195 288.303 348.57 288.303C347.945 288.303 342.192 289.683 335.784 291.368C329.378 293.053 311.785 296.979 296.692 300.09C268.207 305.961 250.131 310.095 249.386 310.908C249.148 311.168 246.018 317.274 242.431 324.478C232.457 344.509 226.145 353.098 205.995 374.061C181.899 399.13 166.569 419.242 158.64 436.184C153.96 446.186 154.614 448.771 165.301 462.559C172.849 472.295 172.849 472.295 172.308 488.708C171.891 501.304 171.278 505.866 169.667 508.323C168.431 510.21 163.145 513.637 156.799 516.666C150.875 519.494 143.779 523.437 141.027 525.429C132.418 531.666 129.517 530.544 105.216 511.585C88.7867 498.768 88.9389 502.866 103.361 461.524C110.15 442.063 118.64 419.899 122.226 412.269C125.813 404.64 134.061 386.397 140.555 371.728C162.813 321.457 173.468 300.882 189.083 278.024C197.578 265.59 203.003 261.142 220.771 252.041C234.966 244.77 241.142 240.285 257.398 225.442C280.408 204.434 293.143 198.057 316.115 196.041C329.889 194.832 329.889 194.832 339.78 185.644C368.438 159.021 405.301 150.848 433.383 164.892C437.21 166.807 442.963 170.373 446.165 172.818C451.989 177.263 451.989 177.263 466.648 176.52C474.71 176.111 487.178 175.696 494.354 175.595C507.401 175.413 507.401 175.413 508.3 171.047C508.796 168.646 508.675 161.068 508.03 154.207C505.398 126.175 505.232 111.029 507.43 99.4133C508.589 93.2898 510.293 86.8344 511.216 85.0681Z"/>
</mask>
<path d="M511.216 85.0681C517.857 72.362 546.212 60.5055 581.443 55.7017C612.844 51.4206 627.717 55.0393 634.375 68.5836C636.831 73.5795 637.236 76.4261 637.336 89.3417C637.422 100.339 637.996 105.527 639.503 108.894C640.631 111.415 641.444 116.013 641.309 119.111C641.106 123.789 641.742 125.589 645.059 129.717C650.037 135.911 652.123 140.386 651.18 142.844C650.78 143.886 648.181 145.898 645.403 147.315C640.718 149.705 640.348 150.274 640.307 155.167C640.284 158.07 639.519 163.557 638.608 167.364C637.603 171.563 637.192 178.037 637.564 183.828C638.163 193.157 638.092 193.458 634.371 197.179C630.696 200.854 630.182 200.985 619.416 200.985C602.664 200.985 597.025 202.007 596.195 205.195C595.816 206.653 591.801 213.739 587.273 220.943C577.17 237.012 577.161 238.644 587.079 254.399C590.829 260.354 594.87 267.147 596.062 269.493C597.944 273.208 598.382 273.481 599.435 271.6C600.451 269.784 601.772 269.567 607.712 270.244C631.5 272.956 651.585 284.122 663.321 301.163C665.899 304.906 669.853 312.665 672.109 318.405C676.209 328.844 676.209 328.844 686.659 333.954C710.85 345.785 718.677 366.522 713.838 405.972C713.096 412.031 712.778 417.277 713.132 417.632C713.807 418.306 735.04 405.69 745.758 398.246C760.316 388.133 772.233 373.692 778.679 358.349C782.782 348.586 782.472 345.579 776.485 337.044C773.624 332.965 769.188 325.241 766.628 319.88C762.545 311.33 761.989 309.055 762.096 301.361C762.249 290.497 763.76 287.511 769.954 285.843C774.774 284.545 774.774 284.545 775.326 276.9C775.978 267.894 777.917 265.85 785.812 265.85C791.878 265.85 821.64 271.553 825.024 273.364C830.344 276.212 838.69 294.061 838.69 302.595C838.69 306.715 831.261 344.506 828.783 352.991C828.11 355.294 825.391 360.065 822.74 363.594C815.203 373.622 807.905 386.858 798.003 408.454C778.721 450.512 762.113 475.158 737.262 498.599C721.798 513.184 713.098 518.449 704.461 518.449C699.846 518.449 697.241 517.767 695.361 516.066C693.913 514.756 692.454 513.958 692.118 514.292C691.784 514.627 688.685 535.908 685.235 561.582C681.785 587.256 669.874 748.447 669.57 749.304C676.874 746.829 679.604 747.807 693.071 757.722C700.972 763.537 701.354 764.039 699.099 765.618C696.12 767.705 690.941 775.899 691.958 776.917C692.369 777.327 695.496 775.052 698.908 771.861C703.477 767.588 706.11 766.059 708.906 766.059C713.401 766.059 713.872 768.356 710.08 771.789C707.29 774.312 703.374 781.028 704.69 781.028C705.121 781.028 708.283 778.502 711.717 775.415C716.013 771.553 719.063 769.802 721.495 769.802C726.604 769.802 726.955 771.573 722.69 775.838C719.513 779.016 717.633 783.523 719.486 783.523C719.788 783.523 722.628 781.278 725.799 778.534C729.706 775.152 732.746 773.544 735.231 773.544C739.606 773.544 739.812 774.902 736.179 779.816C732.094 785.342 734.375 785.712 740.95 780.589C749.693 773.777 755.928 774.669 752.046 782.177C749.131 787.814 749.702 788.164 754.397 783.613C758.587 779.551 758.813 779.49 765.936 780.506C774.865 781.779 784.46 781.375 800.323 779.06C818.295 776.437 833.344 776.699 838.298 779.719C845.078 783.852 848.356 792.593 845.6 799.188C838.103 817.132 794.498 844.612 755.286 856.106C743.09 859.68 740.4 860.012 722.057 860.199C700.355 860.42 696.888 861.133 684.553 867.909C680.391 870.194 673.655 873.219 669.584 874.63C660.361 877.826 636.123 882.068 627.091 882.068C610.554 882.068 603.927 873.385 606.96 855.693C608.337 847.666 608.194 846.363 604.273 831.273C596.811 802.547 596.612 798.99 602.259 795.29C606.012 792.83 607.809 793.746 612.827 800.675C610.602 779.687 627.091 621.788 599.898 597.304C584.388 583.339 585.299 528.678 584.388 507.351C583.595 488.767 583.595 488.767 574.661 500.491C551.886 530.375 525.644 556.881 502.026 573.862C483.755 586.997 482.836 588.041 478.872 600.155C472.017 621.102 442.931 689.474 429.405 716.439C404.312 766.457 381.332 797.942 348.459 827.34C340.456 834.497 336.352 839.387 331.72 847.283C311.271 882.142 307.28 885.395 275.283 893.287C250.686 899.355 247.035 900.858 206.299 921.673C150.508 950.18 114.663 970.424 79.4112 993.336C65.893 1002.12 63.9683 1003.79 64.6943 1006.06C66.9346 1013.07 66.7512 1015.59 63.609 1020.96C60.2809 1026.63 49.088 1037.62 42.9221 1041.27C40.9786 1042.41 38.4863 1045.25 37.3823 1047.56C35.6734 1051.14 34.9112 1051.65 32.2355 1050.98C29.6908 1050.34 29.2417 1050.57 29.8679 1052.2C30.292 1053.31 30.2883 1055.62 29.8579 1057.33C29.238 1059.8 28.2875 1060.45 25.2737 1060.45C22.1153 1060.45 21.5976 1060.85 22.2176 1062.8C22.628 1064.09 22.2787 1066.65 21.4429 1068.49C20.2592 1071.09 19.2999 1071.67 17.1207 1071.12C14.7057 1070.52 14.3353 1070.9 14.4201 1073.91C14.4825 1076.08 12.3593 1080.66 8.77554 1086.07C4.09277 1093.15 1.97843 1098.41 -2.68063 1114.55C-9.9817 1139.85 -11.1131 1142.49 -15.383 1144.11C-20.5497 1146.07 -30.277 1145.97 -32.7631 1143.92C-36.2009 1141.09 -41.334 1128.41 -45.8521 1111.59C-49.7914 1096.92 -50.0284 1094.89 -49.8588 1077.29C-49.6779 1058.61 -46.8662 1041.86 -41.8542 1029.61C-40.366 1025.97 -40.6766 1023.76 -45.0937 1006.53C-49.4296 989.608 -49.9798 985.798 -49.9997 972.505C-50.0247 954.999 -48.4504 948.514 -42.6338 942.167C-38.9165 938.11 -37.7776 937.604 -32.4188 937.618C-29.1007 937.626 -20.4923 939.257 -13.2886 941.241C0.387993 945.007 13.7402 945.922 25.5107 943.896C32.1744 942.75 36.6077 944.478 36.6077 948.224C36.6077 949.573 37.0418 950.676 37.5732 950.676C39.6675 950.676 58.6531 939.12 67.5084 932.453C89.0262 916.258 103.936 901.001 126.186 872.411C136.433 859.243 151.419 845.007 160.308 839.996C170.117 834.465 179.125 831.648 199.311 827.797C221.592 823.547 228.963 820.757 235.695 814.025C245.779 803.941 250.787 790.673 258.001 754.938C264.279 723.833 273.606 698.317 286.078 678.117C302.193 652.017 301.681 653.262 301.681 640.125C301.681 628.552 301.519 627.874 295.835 615.747C289.045 601.262 286.515 592.216 285.36 578.3C283.505 555.943 290.195 530.657 306.475 498.491C315.576 480.511 317.491 477.639 325.793 469.517C334.587 460.915 335.171 459.982 338.582 449.1C341.727 439.071 344.974 432.284 358.267 407.958C361.388 402.25 361.388 402.25 356.799 371.16L356.799 371.159C352.034 338.873 349.707 314.894 349.707 298.101C349.707 292.713 349.195 288.303 348.57 288.303C347.945 288.303 342.192 289.683 335.784 291.368C329.378 293.053 311.785 296.979 296.692 300.09C268.207 305.961 250.131 310.095 249.386 310.908C249.148 311.168 246.018 317.274 242.431 324.478C232.457 344.509 226.145 353.098 205.995 374.061C181.899 399.13 166.569 419.242 158.64 436.184C153.96 446.186 154.614 448.771 165.301 462.559C172.849 472.295 172.849 472.295 172.308 488.708C171.891 501.304 171.278 505.866 169.667 508.323C168.431 510.21 163.145 513.637 156.799 516.666C150.875 519.494 143.779 523.437 141.027 525.429C132.418 531.666 129.517 530.544 105.216 511.585C88.7867 498.768 88.9389 502.866 103.361 461.524C110.15 442.063 118.64 419.899 122.226 412.269C125.813 404.64 134.061 386.397 140.555 371.728C162.813 321.457 173.468 300.882 189.083 278.024C197.578 265.59 203.003 261.142 220.771 252.041C234.966 244.77 241.142 240.285 257.398 225.442C280.408 204.434 293.143 198.057 316.115 196.041C329.889 194.832 329.889 194.832 339.78 185.644C368.438 159.021 405.301 150.848 433.383 164.892C437.21 166.807 442.963 170.373 446.165 172.818C451.989 177.263 451.989 177.263 466.648 176.52C474.71 176.111 487.178 175.696 494.354 175.595C507.401 175.413 507.401 175.413 508.3 171.047C508.796 168.646 508.675 161.068 508.03 154.207C505.398 126.175 505.232 111.029 507.43 99.4133C508.589 93.2898 510.293 86.8344 511.216 85.0681Z" fill="#0C0052"/>
<path d="M511.216 85.0681C517.857 72.362 546.212 60.5055 581.443 55.7017C612.844 51.4206 627.717 55.0393 634.375 68.5836C636.831 73.5795 637.236 76.4261 637.336 89.3417C637.422 100.339 637.996 105.527 639.503 108.894C640.631 111.415 641.444 116.013 641.309 119.111C641.106 123.789 641.742 125.589 645.059 129.717C650.037 135.911 652.123 140.386 651.18 142.844C650.78 143.886 648.181 145.898 645.403 147.315C640.718 149.705 640.348 150.274 640.307 155.167C640.284 158.07 639.519 163.557 638.608 167.364C637.603 171.563 637.192 178.037 637.564 183.828C638.163 193.157 638.092 193.458 634.371 197.179C630.696 200.854 630.182 200.985 619.416 200.985C602.664 200.985 597.025 202.007 596.195 205.195C595.816 206.653 591.801 213.739 587.273 220.943C577.17 237.012 577.161 238.644 587.079 254.399C590.829 260.354 594.87 267.147 596.062 269.493C597.944 273.208 598.382 273.481 599.435 271.6C600.451 269.784 601.772 269.567 607.712 270.244C631.5 272.956 651.585 284.122 663.321 301.163C665.899 304.906 669.853 312.665 672.109 318.405C676.209 328.844 676.209 328.844 686.659 333.954C710.85 345.785 718.677 366.522 713.838 405.972C713.096 412.031 712.778 417.277 713.132 417.632C713.807 418.306 735.04 405.69 745.758 398.246C760.316 388.133 772.233 373.692 778.679 358.349C782.782 348.586 782.472 345.579 776.485 337.044C773.624 332.965 769.188 325.241 766.628 319.88C762.545 311.33 761.989 309.055 762.096 301.361C762.249 290.497 763.76 287.511 769.954 285.843C774.774 284.545 774.774 284.545 775.326 276.9C775.978 267.894 777.917 265.85 785.812 265.85C791.878 265.85 821.64 271.553 825.024 273.364C830.344 276.212 838.69 294.061 838.69 302.595C838.69 306.715 831.261 344.506 828.783 352.991C828.11 355.294 825.391 360.065 822.74 363.594C815.203 373.622 807.905 386.858 798.003 408.454C778.721 450.512 762.113 475.158 737.262 498.599C721.798 513.184 713.098 518.449 704.461 518.449C699.846 518.449 697.241 517.767 695.361 516.066C693.913 514.756 692.454 513.958 692.118 514.292C691.784 514.627 688.685 535.908 685.235 561.582C681.785 587.256 669.874 748.447 669.57 749.304C676.874 746.829 679.604 747.807 693.071 757.722C700.972 763.537 701.354 764.039 699.099 765.618C696.12 767.705 690.941 775.899 691.958 776.917C692.369 777.327 695.496 775.052 698.908 771.861C703.477 767.588 706.11 766.059 708.906 766.059C713.401 766.059 713.872 768.356 710.08 771.789C707.29 774.312 703.374 781.028 704.69 781.028C705.121 781.028 708.283 778.502 711.717 775.415C716.013 771.553 719.063 769.802 721.495 769.802C726.604 769.802 726.955 771.573 722.69 775.838C719.513 779.016 717.633 783.523 719.486 783.523C719.788 783.523 722.628 781.278 725.799 778.534C729.706 775.152 732.746 773.544 735.231 773.544C739.606 773.544 739.812 774.902 736.179 779.816C732.094 785.342 734.375 785.712 740.95 780.589C749.693 773.777 755.928 774.669 752.046 782.177C749.131 787.814 749.702 788.164 754.397 783.613C758.587 779.551 758.813 779.49 765.936 780.506C774.865 781.779 784.46 781.375 800.323 779.06C818.295 776.437 833.344 776.699 838.298 779.719C845.078 783.852 848.356 792.593 845.6 799.188C838.103 817.132 794.498 844.612 755.286 856.106C743.09 859.68 740.4 860.012 722.057 860.199C700.355 860.42 696.888 861.133 684.553 867.909C680.391 870.194 673.655 873.219 669.584 874.63C660.361 877.826 636.123 882.068 627.091 882.068C610.554 882.068 603.927 873.385 606.96 855.693C608.337 847.666 608.194 846.363 604.273 831.273C596.811 802.547 596.612 798.99 602.259 795.29C606.012 792.83 607.809 793.746 612.827 800.675C610.602 779.687 627.091 621.788 599.898 597.304C584.388 583.339 585.299 528.678 584.388 507.351C583.595 488.767 583.595 488.767 574.661 500.491C551.886 530.375 525.644 556.881 502.026 573.862C483.755 586.997 482.836 588.041 478.872 600.155C472.017 621.102 442.931 689.474 429.405 716.439C404.312 766.457 381.332 797.942 348.459 827.34C340.456 834.497 336.352 839.387 331.72 847.283C311.271 882.142 307.28 885.395 275.283 893.287C250.686 899.355 247.035 900.858 206.299 921.673C150.508 950.18 114.663 970.424 79.4112 993.336C65.893 1002.12 63.9683 1003.79 64.6943 1006.06C66.9346 1013.07 66.7512 1015.59 63.609 1020.96C60.2809 1026.63 49.088 1037.62 42.9221 1041.27C40.9786 1042.41 38.4863 1045.25 37.3823 1047.56C35.6734 1051.14 34.9112 1051.65 32.2355 1050.98C29.6908 1050.34 29.2417 1050.57 29.8679 1052.2C30.292 1053.31 30.2883 1055.62 29.8579 1057.33C29.238 1059.8 28.2875 1060.45 25.2737 1060.45C22.1153 1060.45 21.5976 1060.85 22.2176 1062.8C22.628 1064.09 22.2787 1066.65 21.4429 1068.49C20.2592 1071.09 19.2999 1071.67 17.1207 1071.12C14.7057 1070.52 14.3353 1070.9 14.4201 1073.91C14.4825 1076.08 12.3593 1080.66 8.77554 1086.07C4.09277 1093.15 1.97843 1098.41 -2.68063 1114.55C-9.9817 1139.85 -11.1131 1142.49 -15.383 1144.11C-20.5497 1146.07 -30.277 1145.97 -32.7631 1143.92C-36.2009 1141.09 -41.334 1128.41 -45.8521 1111.59C-49.7914 1096.92 -50.0284 1094.89 -49.8588 1077.29C-49.6779 1058.61 -46.8662 1041.86 -41.8542 1029.61C-40.366 1025.97 -40.6766 1023.76 -45.0937 1006.53C-49.4296 989.608 -49.9798 985.798 -49.9997 972.505C-50.0247 954.999 -48.4504 948.514 -42.6338 942.167C-38.9165 938.11 -37.7776 937.604 -32.4188 937.618C-29.1007 937.626 -20.4923 939.257 -13.2886 941.241C0.387993 945.007 13.7402 945.922 25.5107 943.896C32.1744 942.75 36.6077 944.478 36.6077 948.224C36.6077 949.573 37.0418 950.676 37.5732 950.676C39.6675 950.676 58.6531 939.12 67.5084 932.453C89.0262 916.258 103.936 901.001 126.186 872.411C136.433 859.243 151.419 845.007 160.308 839.996C170.117 834.465 179.125 831.648 199.311 827.797C221.592 823.547 228.963 820.757 235.695 814.025C245.779 803.941 250.787 790.673 258.001 754.938C264.279 723.833 273.606 698.317 286.078 678.117C302.193 652.017 301.681 653.262 301.681 640.125C301.681 628.552 301.519 627.874 295.835 615.747C289.045 601.262 286.515 592.216 285.36 578.3C283.505 555.943 290.195 530.657 306.475 498.491C315.576 480.511 317.491 477.639 325.793 469.517C334.587 460.915 335.171 459.982 338.582 449.1C341.727 439.071 344.974 432.284 358.267 407.958C361.388 402.25 361.388 402.25 356.799 371.16L356.799 371.159C352.034 338.873 349.707 314.894 349.707 298.101C349.707 292.713 349.195 288.303 348.57 288.303C347.945 288.303 342.192 289.683 335.784 291.368C329.378 293.053 311.785 296.979 296.692 300.09C268.207 305.961 250.131 310.095 249.386 310.908C249.148 311.168 246.018 317.274 242.431 324.478C232.457 344.509 226.145 353.098 205.995 374.061C181.899 399.13 166.569 419.242 158.64 436.184C153.96 446.186 154.614 448.771 165.301 462.559C172.849 472.295 172.849 472.295 172.308 488.708C171.891 501.304 171.278 505.866 169.667 508.323C168.431 510.21 163.145 513.637 156.799 516.666C150.875 519.494 143.779 523.437 141.027 525.429C132.418 531.666 129.517 530.544 105.216 511.585C88.7867 498.768 88.9389 502.866 103.361 461.524C110.15 442.063 118.64 419.899 122.226 412.269C125.813 404.64 134.061 386.397 140.555 371.728C162.813 321.457 173.468 300.882 189.083 278.024C197.578 265.59 203.003 261.142 220.771 252.041C234.966 244.77 241.142 240.285 257.398 225.442C280.408 204.434 293.143 198.057 316.115 196.041C329.889 194.832 329.889 194.832 339.78 185.644C368.438 159.021 405.301 150.848 433.383 164.892C437.21 166.807 442.963 170.373 446.165 172.818C451.989 177.263 451.989 177.263 466.648 176.52C474.71 176.111 487.178 175.696 494.354 175.595C507.401 175.413 507.401 175.413 508.3 171.047C508.796 168.646 508.675 161.068 508.03 154.207C505.398 126.175 505.232 111.029 507.43 99.4133C508.589 93.2898 510.293 86.8344 511.216 85.0681Z" stroke="white" stroke-width="40" mask="url(#path-3-outside-1_47_102)"/>
<path fill-rule="evenodd" clip-rule="evenodd" d="M612.76 80.7979C617.235 83.0333 621.291 86.1518 622.916 88.608C625.713 92.8342 632.44 111.374 631.513 112.302C631.225 112.591 628.417 111.056 625.274 108.895C617.118 103.284 611.838 101.359 604.595 101.359C598.027 101.359 589.799 104.537 591.689 106.345C592.282 106.912 596.136 109.078 600.252 111.157C604.368 113.237 609.956 117.215 612.667 119.999C615.379 122.782 618.155 125.06 618.836 125.06C619.517 125.06 621.615 123.584 623.499 121.779C625.452 119.908 627.722 118.805 628.785 119.213C631.241 120.156 643.426 137.547 642.584 138.91C642.225 139.491 639.473 139.629 636.467 139.216C629.25 138.227 622.082 139.613 622.082 141.996C622.082 143.895 622.788 144.285 628.487 145.526C631.032 146.08 631.914 147.159 632.393 150.307C632.733 152.544 632.814 154.713 632.574 155.128C632.333 155.544 629.172 155.403 625.549 154.815C618.589 153.685 612.102 154.422 612.102 156.343C612.102 156.976 613.804 157.492 615.884 157.492C620.542 157.492 627.104 160.135 629.44 162.953C630.911 164.725 630.926 165.846 629.54 170.046C628.099 174.412 628.163 175.597 630.049 179.554C633.76 187.335 630.578 187.345 609.607 179.616C589.291 172.129 570.957 163.556 567.176 159.775C565.181 157.78 563.177 154.165 562.721 151.742C562.267 149.318 560.481 145.654 558.753 143.601C555.717 139.994 555.357 139.895 547.993 140.685C541.265 141.404 539.955 141.171 536.794 138.684C532.029 134.935 529.774 129.139 529.774 120.638C529.774 114.568 530.256 113.158 533.42 109.995C537.686 105.73 541.265 105.366 544.742 108.843C547.855 111.956 548.033 114.434 545.054 113.182C543.854 112.678 541.615 111.992 540.08 111.659C536.409 110.862 535.001 114.393 537.772 117.454C539.327 119.173 539.65 121.08 539.084 125.204C538.331 130.673 538.331 130.673 540.913 127.728C542.334 126.109 543.495 123.996 543.495 123.033C543.495 121.769 544.795 122.141 548.173 124.374C550.746 126.074 556.861 128.307 561.763 129.336C566.666 130.365 573.682 132.349 577.356 133.747C581.029 135.142 584.456 136.285 584.971 136.285C587.904 136.288 584.742 131.762 575.928 123.341C570.439 118.097 565.948 112.989 565.948 111.989C565.948 109.764 577.453 100.91 583.78 98.2666C586.322 97.2051 588.4 95.9227 588.398 95.4175C588.395 94.9111 586.201 90.8545 583.519 86.4025C580.839 81.9493 578.946 77.8191 579.315 77.2229C579.683 76.6266 585.682 76.3509 592.647 76.6079C603.664 77.0158 606.277 77.5609 612.76 80.7979ZM542.48 157.407C547.969 161.725 550.358 172.936 550.34 194.291C550.325 211.398 549.967 214.391 546.161 229.218C543.872 238.137 541.613 246.134 541.141 246.989C540.537 248.081 537.456 246.505 530.776 241.687C525.547 237.916 520.899 234.831 520.445 234.831C519.4 234.831 533.354 251.736 538.329 256.498C541.514 259.544 543.517 260.222 551.825 261.071C564.333 262.347 570.896 264.622 587.778 273.533C595.325 277.516 604.438 281.632 608.03 282.679C626.824 288.157 646.926 303.113 654.439 317.209C656.671 321.395 658.287 325.029 658.033 325.283C657.174 326.144 641.459 328.368 636.179 328.377C631.163 328.387 630.697 328.049 625.262 320.431C616.805 308.579 615.851 308.075 615.817 315.449C615.802 318.791 614.758 323.796 613.498 326.572C611.023 332.019 614.638 331.009 550.044 344.316C547.237 344.894 547.237 344.894 547.237 313.637C547.237 296.393 546.732 282.068 546.111 281.684C545.492 281.301 544.413 282.631 543.713 284.638C539.844 295.736 526.802 311.329 517.923 315.472C510.29 319.035 503.791 319.164 493.418 315.958C478.706 311.411 469.733 304.243 451.172 282.208C437.619 266.119 427.425 256.322 419.258 251.535C416.237 249.764 413.765 247.839 413.765 247.258C413.765 246.677 417.835 243.058 422.808 239.216C427.782 235.375 434.519 230.161 437.777 227.631C441.036 225.1 443.702 222.381 443.702 221.588C443.702 220.555 433.991 219.886 409.399 219.228C390.532 218.722 375.095 217.832 375.095 217.249C375.095 216.667 378.322 215.293 382.268 214.198C386.213 213.103 390.143 211.983 391 211.708C392.883 211.106 393.09 208.636 391.258 208.636C388.189 208.636 354.518 204.69 354.11 204.282C351.333 201.506 369.913 182.671 380.635 177.396C402.345 166.713 422.952 171.025 458.1 193.61C479.436 207.317 482.371 209.052 483.058 208.365C483.377 208.046 480.828 204.073 477.392 199.534C473.956 194.995 471.145 190.978 471.145 190.603C471.145 189.673 490.423 189.741 492.873 190.682C494.144 191.17 494.846 192.968 494.846 195.731C494.846 199.774 501.437 212.155 504.646 214.138C505.381 214.592 512.351 202.237 521.105 184.961C529.458 168.481 536.995 154.997 537.854 154.997C538.714 154.997 540.794 156.081 542.48 157.407ZM319.79 210.195C315.347 220.284 312.691 227.74 311.999 232.073C311.176 237.223 311.229 237.326 314.748 237.33C321.967 237.339 340.631 241.283 350.717 244.933C367.839 251.129 367.839 251.139 350.022 257.002C341.515 259.802 330.164 262.695 324.797 263.431C312.69 265.091 283.06 265.231 284.721 263.619C285.711 262.657 305.292 252.692 316.467 247.461C322.394 244.687 299.091 247.071 287.153 250.46C267.2 256.125 232.493 274.732 210.002 291.824C205.988 294.874 202.439 297.103 202.114 296.778C200.203 294.867 218.495 267.874 226.265 261.142C229.565 258.28 239.788 252.197 248.979 247.621C261.745 241.268 267.736 237.426 274.356 231.351C285.529 221.099 296.304 214.182 305.787 211.174C314.748 208.333 320.796 207.91 319.79 210.195ZM806.488 275.464C815.977 276.879 820.846 278.151 821.298 279.333C821.67 280.301 821.736 281.332 821.444 281.624C820.4 282.667 785.517 279.015 784.229 277.727C783.507 277.005 783.293 275.429 783.754 274.227C784.39 272.569 785.53 272.2 788.473 272.699C790.606 273.061 798.713 274.306 806.488 275.464ZM825.969 287.995C827.125 288.437 827.903 290.25 827.903 292.495C827.903 296.255 827.903 296.255 811.999 295.422C803.251 294.965 794.608 294.304 792.791 293.953C789.517 293.322 787.312 289.324 788.857 286.823C789.637 285.561 822.316 286.592 825.969 287.995ZM778.746 296.176C780.673 299.904 780.662 300.238 778.539 301.79C775.728 303.844 771.5 303.916 769.525 301.942C767.206 299.623 767.661 293.738 770.211 293.072C775.172 291.775 776.771 292.357 778.746 296.176ZM830.398 305.072C830.398 311.573 828.172 313.691 822.923 312.178C820.525 311.488 814.842 310.923 810.293 310.923C795.532 310.923 791.291 308.917 794.272 303.349C795.448 301.15 797.054 300.944 812.978 300.944C830.398 300.944 830.398 300.944 830.398 305.072ZM467.706 329.571C474.92 332.28 486.641 335.664 493.753 337.09C516.464 341.643 516.052 341.458 516.052 347.087C516.052 349.772 515.413 353.372 514.631 355.088C513.138 358.366 512.608 358.663 493.347 367.016C455.532 383.417 419.418 412.687 367.859 468.72C360.915 476.267 355.212 481.828 355.184 481.077C355.043 477.06 374.355 452.651 395.571 430.028C407.938 416.842 407.938 416.842 399.625 395.989C395.052 384.519 391.311 374.788 391.311 374.362C391.311 373.938 399.311 376.528 409.087 380.119C418.863 383.709 427.032 386.222 427.239 385.701C427.446 385.181 421.66 372.854 414.38 358.307C407.1 343.761 401.418 331.586 401.751 331.252C402.085 330.919 406.749 334.213 412.116 338.574C428.242 351.678 453.682 366.804 453.682 363.288C453.682 362.57 449.472 355.809 444.326 348.264C436.204 336.355 433.438 330.882 435.539 330.882C435.851 330.882 438.226 332.32 440.817 334.079C445.198 337.051 465.331 347.098 466.908 347.098C467.295 347.098 464.58 342.747 460.876 337.431C452.392 325.252 452.039 324.645 453.438 324.645C454.072 324.645 460.493 326.861 467.706 329.571ZM675.076 346.66C683.171 349.418 691.062 357.566 693.941 366.138C697.064 375.439 696.605 386.865 691.422 428.803C688.964 448.699 686.95 465.358 686.949 465.824C686.948 466.288 683.644 468.675 679.606 471.128C670.819 476.465 672.255 468.463 666.951 541.693C664.839 570.851 662.878 595.41 662.594 596.267C662.284 597.2 659.869 597.827 656.577 597.827C653.552 597.827 650.511 597.126 649.82 596.267C648.974 595.218 649.109 579.012 650.233 546.683C651.151 520.269 651.929 494.103 651.961 488.538C652.019 478.416 652.019 478.416 644.847 475.256C630.566 468.965 632.061 465.437 632.061 505.435C632.061 524.691 631.568 540.446 630.967 540.446C628.381 540.446 621.071 517.557 616.558 495.326C613.094 478.256 612.006 467.776 611.986 451.224C611.963 433.038 614.222 419.445 619.102 408.41C628.07 388.133 623.828 381.833 607.736 391.533C597.307 397.819 580.024 410.994 565.564 423.681C558.834 429.585 553.014 434.416 552.63 434.416C550.828 434.416 570.564 409.931 579.41 401.188C586.53 394.153 586.53 394.153 582.241 394.966C576.157 396.118 560.228 403.193 547.755 410.28C535.79 417.079 511.871 434.499 504.006 442.143C501.154 444.913 498.224 446.813 497.496 446.363C496.767 445.912 494.75 441.046 493.014 435.549C490.437 427.392 489.857 423.046 489.857 411.898C489.857 404.388 489.593 398.242 489.272 398.242C487.645 398.242 467.689 410.822 465.532 413.205C463.365 415.602 462.98 418.088 462.598 432.116C461.733 464.014 469.262 491.191 485.343 514.209C488.443 518.645 490.752 522.502 490.475 522.779C489.572 523.682 480.102 515.514 473.164 507.847C459.321 492.552 452.016 471.703 450.385 442.836C449.689 430.518 449.235 428.179 447.542 428.179C444.644 428.179 423.92 444.056 409.677 457.188C402.966 463.376 397.229 468.194 396.93 467.893C394.778 465.741 419.628 438.029 435.982 424.34C478.556 388.708 531.434 365.321 602.204 350.824C638.666 343.354 661.538 342.047 675.076 346.66ZM645.159 378.146C642.414 379.412 638.781 381.955 637.085 383.795C634.151 386.979 633.952 388.192 633.004 408.596C631.985 430.528 632.546 441.838 634.871 446.267C636.833 450.005 655.975 469.344 657.712 469.344C658.542 469.344 663.974 464.348 669.786 458.242C682.426 444.958 682.644 444.32 684.488 415.092C685.763 394.887 685.72 394.084 683.105 388.681C680.474 383.245 674.466 378.197 668.547 376.449C664.745 375.327 665.018 376.423 669.549 380.484C675.426 385.75 677.231 397.31 674.307 410.945C672.35 420.071 666.736 425.685 659.566 425.685C646.997 425.685 642.699 419.474 642.735 401.36C642.762 387.578 644.908 380.372 649.411 378.943C650.845 378.488 652.019 377.592 652.019 376.952C652.019 375.316 650.852 375.518 645.159 378.146Z" fill="white"/>
<path d="M156.948 470.057C154.183 466.917 149.196 462.348 145.866 459.902C136.136 452.761 136.056 453.438 144.843 468.554C151.369 479.781 151.369 479.781 151.369 493.19C151.369 500.566 151.538 506.6 151.743 506.6C152.942 506.6 160.249 502.285 161.018 501.124C161.522 500.363 161.942 494.345 161.953 487.753C161.972 475.766 161.972 475.766 156.948 470.057Z" fill="white"/>
</g>
</g>
<defs>
<filter id="filter0_d_47_102" x="-5" y="16" width="1003" height="1030" filterUnits="userSpaceOnUse" color-interpolation-filters="sRGB">
<feFlood flood-opacity="0" result="BackgroundImageFix"/>
<feColorMatrix in="SourceAlpha" type="matrix" values="0 0 0 0 0 0 0 0 0 0 0 0 0 0 0 0 0 0 127 0" result="hardAlpha"/>
<feOffset dx="-31" dy="37"/>
<feComposite in2="hardAlpha" operator="out"/>
<feColorMatrix type="matrix" values="0 0 0 0 0 0 0 0 0 0 0 0 0 0 0 0 0 0 0.25 0"/>
<feBlend mode="normal" in2="BackgroundImageFix" result="effect1_dropShadow_47_102"/>
<feBlend mode="normal" in="SourceGraphic" in2="effect1_dropShadow_47_102" result="shape"/>
</filter>
<filter id="filter1_d_47_102" x="-101" y="34" width="967.621" height="1168.52" filterUnits="userSpaceOnUse" color-interpolation-filters="sRGB">
<feFlood flood-opacity="0" result="BackgroundImageFix"/>
<feColorMatrix in="SourceAlpha" type="matrix" values="0 0 0 0 0 0 0 0 0 0 0 0 0 0 0 0 0 0 127 0" result="hardAlpha"/>
<feOffset dx="-31" dy="37"/>
<feComposite in2="hardAlpha" operator="out"/>
<feColorMatrix type="matrix" values="0 0 0 0 0 0 0 0 0 0 0 0 0 0 0 0 0 0 0.25 0"/>
<feBlend mode="normal" in2="BackgroundImageFix" result="effect1_dropShadow_47_102"/>
<feBlend mode="normal" in="SourceGraphic" in2="effect1_dropShadow_47_102" result="shape"/>
</filter>
<linearGradient id="paint0_linear_47_102" x1="512" y1="0" x2="512" y2="1024" gradientUnits="userSpaceOnUse">
<stop stop-color="#162045"/>
<stop offset="1" stop-color="#3E2259"/>
</linearGradient>
<linearGradient id="paint1_linear_47_102" x1="231.5" y1="26.5" x2="596.5" y2="931" gradientUnits="userSpaceOnUse">
<stop stop-color="#E7D3FF"/>
<stop offset="1" stop-color="#566EEF"/>
</linearGradient>
<clipPath id="clip0_47_102">
<rect width="1024" height="1024" rx="250" fill="white"/>
</clipPath>
</defs>
</svg>
