<svg width="1024" height="1024" viewBox="0 0 1024 1024" fill="none" xmlns="http://www.w3.org/2000/svg">
<g clip-path="url(#clip0_47_84)">
<rect width="1024" height="1024" rx="250" fill="url(#paint0_linear_47_84)"/>
<g filter="url(#filter0_d_47_84)">
<path fill-rule="evenodd" clip-rule="evenodd" d="M571.387 18.6851C628.493 26.5377 668.176 37.7047 716.573 59.54C743.696 71.7765 761.968 82.0668 793.506 102.864C848.045 138.826 892.205 181.993 921.618 228.092C947.954 269.366 965.612 307.827 971.253 336.196C973.732 348.666 969.944 364.081 962.99 369.813C952.746 378.259 940.102 376.069 925.627 363.346C914.801 353.83 907.187 344.378 890.956 320.305C860.125 274.577 815.388 237.49 764.388 215.381C740.847 205.175 720.812 201.413 690.207 201.45C654.321 201.494 626.173 206.337 572.457 221.709C532.828 233.05 526.688 234.366 516.302 233.75C507.434 233.224 502.747 231.349 497.167 226.098C492.334 221.553 490.567 217.848 490.567 212.27C490.567 195.411 541.868 201.348 591.5 189.491C606.826 185.83 601.419 155.456 605.019 150.878C608.581 146.35 607.936 142.236 602.917 137.461C590.626 125.767 565.476 119.838 539.169 122.436C501.782 126.126 472.931 136.472 433.612 160.286C408.548 175.468 401.38 178.028 394.247 174.346C388.911 171.591 385.336 165.88 386.07 161.282C386.823 156.567 390.459 152.828 402.007 144.89C412.962 137.359 416.122 133.5 416.122 127.645C416.122 124.328 415.435 122.879 412.709 120.443C400.606 109.628 379.268 116.223 338.731 143.306C314.008 159.825 294.592 177.766 288.75 189.491C285.709 195.595 285.254 203.526 287.676 208.209C290.818 214.287 295.839 214.055 309.231 207.216C317.061 203.216 320.889 201.863 324.372 201.863C336.368 201.863 341.837 211.55 336.3 222.989C333.317 229.153 326.616 235.834 312.642 246.577C285.948 267.1 267.158 288.303 242.688 325.513C226.698 349.829 218.382 357.095 206.548 357.095C196.57 357.095 192.37 351.628 193.19 339.709C193.542 334.592 195.116 329.59 199.843 318.554C206.836 302.228 208.309 294.416 205.439 288.868C200.434 279.187 181.158 283.588 167.529 297.523C160.161 305.057 142.194 330.719 131.964 348.318C119.35 370.021 96.5772 406.722 90.4113 415.287C79.0228 431.105 67.2617 439.914 59.9729 438.084C54.0704 436.602 48.534 428.292 46.315 417.582C43.6656 404.792 47.015 385.323 58.6905 345.649C75.7921 287.54 109.266 226.547 146.415 185.804C176.194 153.146 190.035 139.856 215.45 119.518C257.816 85.6168 311.178 56.9106 364.253 39.4701C390.907 30.7118 421.212 23.7885 450.005 19.8777C477.407 16.1575 485.419 15.7325 521.075 16.1125C548.221 16.4005 558.662 16.9347 571.387 18.6851ZM966.516 407.421C977.125 411.965 986.235 424.005 991.408 440.314C1001 470.564 1000.09 501.162 988.89 524.851C975.983 552.154 956.736 557.451 936.781 539.191C927.669 530.854 926.846 528.451 927.392 511.791C928.295 484.268 927.761 466.157 925.766 456.671C923.204 444.474 923.346 427.093 926.06 420.958C931.991 407.548 951.541 401.006 966.516 407.421ZM171.505 414.72C173.511 415.796 175.992 418.243 177.02 420.159C178.046 422.073 179.592 424.445 180.455 425.428C183.646 429.068 183.534 431.701 179.798 440.802C177.789 445.695 173.866 457.407 171.079 466.828C165.023 487.296 163.473 490.152 157.093 492.589C147.62 496.207 138.871 492.688 134.325 483.43C131.664 478.012 131.43 476.491 131.437 464.686C131.445 450.594 133.522 441.604 139.464 429.931C146.729 415.662 160.803 408.981 171.505 414.72ZM72.1215 476.577C79.5184 478.653 91.0536 487.709 94.0926 493.826C96.2335 498.135 96.3609 501.995 95.5667 538.555C95.2637 552.486 95.5527 556.032 97.745 565.32C100.579 577.315 101.027 592.622 98.7812 600.646C96.9657 607.127 91.3501 613.318 84.0389 616.895C75.8135 620.92 63.2132 621.191 56.2595 617.491C43.0608 610.472 35.8009 599.062 29.5977 575.593C26.337 563.254 24.9219 536.464 26.9237 524.966C30.8897 502.19 41.8255 483.206 54.3348 477.38C60.6976 474.417 63.9068 474.272 72.1215 476.577ZM967.029 588.604C975.226 594.032 979.645 609.993 977.588 626.739C976.21 637.973 968.402 669.129 961.858 689.505C952.963 717.206 935.632 755.037 919.749 781.422C904.493 806.766 893.01 821.871 868.655 848.632C823.041 898.751 772.44 936.393 713.757 963.857C667.014 985.733 619.246 999.547 568.166 1005.96C545.149 1008.85 492.345 1009.97 470.981 1008.03C432.485 1004.54 393.173 996.697 358.004 985.503C300.243 967.117 237.109 931.752 184.417 888.268C168.226 874.908 135.89 842.417 124.043 827.608C93.5167 789.446 63.8287 733.641 54.2299 696.376C47.4293 669.973 55.8816 650.427 74.1019 650.43C90.1865 650.433 105.276 664.407 132.475 704.493C160.444 745.714 192.973 774.743 240.258 800.681C267.561 815.657 293.081 822.522 325.182 823.523C363.699 824.725 400.573 818.598 458.453 801.379C494.137 790.763 503.98 789.131 514.265 792.121C530.917 796.962 537.857 810.932 529.557 822.908C520.556 835.897 488.41 851.343 456.313 858.1C440.71 861.384 425.944 867.198 420.814 872.078C414.888 877.717 415.052 882.015 421.417 887.883C437.58 902.782 468.978 906.78 507.701 898.87C537.225 892.838 561.309 882.797 591.725 863.839C616.109 848.64 624.84 846.269 632.3 852.82C634.345 854.615 636.557 857.717 637.215 859.713C639.316 866.074 635.361 871.005 619.672 881.594C608.234 889.313 604.571 896.644 608.995 902.961C611.411 906.411 618.606 909.455 624.417 909.483C636.954 909.544 656.364 900.849 682.461 883.484C702.899 869.884 711.476 862.971 723.096 850.731C734.223 839.012 737.307 833.218 737.307 824.035C737.307 817.866 737.025 817.008 734.179 814.561C729.932 810.907 725.776 811.686 712.393 818.645C702.719 823.676 701.48 824.055 697.132 823.32C690.325 822.169 685.39 817.029 685.39 811.087C685.39 800.979 690.584 794.185 709.343 779.751C735.683 759.485 756.772 735.94 780.187 700.653C792.958 681.407 800.126 673.434 807.921 669.806C817.884 665.167 827.096 668.155 830.005 676.97C832.098 683.314 830.514 690.89 823.889 706.213C818.876 717.81 817.608 721.926 817.254 727.741C816.84 734.583 816.976 735.089 820.066 738.179C823.869 741.982 827.55 742.326 836.397 739.705C844.826 737.207 850.37 733.609 857.405 726.068C865.201 717.712 883.692 690.825 894.7 671.841C919.997 628.21 933.446 607.926 944.441 596.823C954.887 586.273 960.452 584.248 967.029 588.604ZM246.79 696.376C238.253 701.201 224.837 698.221 211.156 688.466C199.173 679.921 189.395 666.62 181.252 647.784C176.72 637.305 165.518 602.074 162.437 588.616C156.233 561.516 158.087 544.201 168.147 535.288C172.476 531.452 185.258 526.507 189.104 527.181C194.161 528.068 202.578 533.642 206.392 538.629C210.509 544.014 216.374 558.889 221.234 576.276C224.651 588.499 228.117 596.659 238.466 616.842C256.849 652.694 260.932 672.858 253 688.597C250.894 692.774 249.029 695.111 246.79 696.376Z" fill="url(#paint1_linear_47_84)"/>
</g>
<g filter="url(#filter1_d_47_84)">
<mask id="path-3-outside-1_47_84" maskUnits="userSpaceOnUse" x="176" y="79" width="691" height="833" fill="black">
<rect fill="white" x="176" y="79" width="691" height="833"/>
<path d="M603.231 121.544C608.05 112.324 628.625 103.721 654.19 100.235C676.975 97.1283 687.767 99.7541 692.598 109.582C694.38 113.207 694.674 115.273 694.747 124.645C694.809 132.625 695.226 136.389 696.319 138.832C697.138 140.661 697.727 143.998 697.63 146.246C697.482 149.64 697.944 150.947 700.351 153.942C703.963 158.437 705.476 161.683 704.792 163.467C704.502 164.223 702.616 165.683 700.6 166.711C697.201 168.446 696.933 168.858 696.903 172.409C696.886 174.516 696.331 178.497 695.67 181.26C694.94 184.307 694.643 189.004 694.912 193.206C695.347 199.976 695.295 200.194 692.595 202.894C689.929 205.56 689.556 205.655 681.743 205.655C669.588 205.655 665.496 206.398 664.894 208.71C664.619 209.768 661.705 214.911 658.42 220.138C651.089 231.798 651.083 232.982 658.279 244.414C661 248.735 663.933 253.664 664.797 255.367C666.163 258.062 666.481 258.261 667.245 256.896C667.982 255.578 668.941 255.42 673.251 255.912C690.512 257.88 705.086 265.982 713.602 278.347C715.473 281.063 718.342 286.693 719.979 290.859C722.954 298.433 722.954 298.433 730.537 302.141C748.091 310.726 753.77 325.773 750.258 354.399C749.72 358.795 749.489 362.602 749.746 362.859C750.236 363.349 765.643 354.194 773.42 348.793C783.984 341.455 792.631 330.976 797.309 319.842C800.286 312.759 800.061 310.576 795.717 304.383C793.64 301.423 790.422 295.819 788.564 291.929C785.602 285.725 785.198 284.074 785.276 278.491C785.386 270.608 786.483 268.441 790.977 267.231C794.475 266.288 794.475 266.288 794.876 260.742C795.348 254.207 796.756 252.723 802.484 252.723C806.886 252.723 828.482 256.861 830.938 258.176C834.798 260.242 840.854 273.194 840.854 279.386C840.854 282.376 835.464 309.798 833.665 315.955C833.177 317.626 831.204 321.088 829.28 323.648C823.812 330.925 818.516 340.529 811.331 356.2C797.339 386.718 785.288 404.602 767.255 421.612C756.034 432.195 749.722 436.015 743.454 436.015C740.105 436.015 738.216 435.52 736.851 434.285C735.801 433.335 734.742 432.756 734.498 432.998C734.256 433.242 732.007 448.684 729.503 467.313C727 485.943 718.357 602.907 718.137 603.529C723.436 601.733 725.418 602.443 735.19 609.637C740.923 613.857 741.2 614.22 739.563 615.366C737.402 616.881 733.644 622.827 734.382 623.565C734.68 623.863 736.949 622.212 739.425 619.897C742.74 616.796 744.651 615.687 746.68 615.687C749.942 615.687 750.283 617.353 747.531 619.844C745.507 621.675 742.665 626.548 743.62 626.548C743.933 626.548 746.228 624.716 748.72 622.475C751.837 619.673 754.05 618.402 755.814 618.402C759.522 618.402 759.776 619.687 756.681 622.782C754.376 625.089 753.012 628.359 754.357 628.359C754.576 628.359 756.637 626.73 758.938 624.738C761.773 622.284 763.979 621.118 765.782 621.118C768.956 621.118 769.105 622.103 766.47 625.669C763.505 629.679 765.161 629.947 769.932 626.23C776.276 621.287 780.8 621.934 777.983 627.382C775.868 631.472 776.282 631.726 779.689 628.424C782.73 625.477 782.894 625.432 788.062 626.169C794.541 627.093 801.503 626.8 813.014 625.12C826.055 623.217 836.975 623.407 840.569 625.598C845.489 628.598 847.868 634.94 845.868 639.726C840.428 652.746 808.787 672.687 780.334 681.027C771.484 683.62 769.533 683.861 756.222 683.996C740.475 684.157 737.959 684.674 729.008 689.591C725.989 691.249 721.101 693.444 718.147 694.468C711.454 696.787 693.867 699.865 687.313 699.865C675.313 699.865 670.504 693.565 672.706 680.727C673.705 674.902 673.601 673.956 670.756 663.007C665.341 642.163 665.196 639.582 669.294 636.897C672.018 635.112 673.321 635.776 676.962 640.805C675.348 625.575 687.313 511 667.581 493.234C656.327 483.101 656.988 443.437 656.327 427.962C655.751 414.477 655.751 414.477 649.269 422.984C632.742 444.668 613.701 463.902 596.563 476.224C583.305 485.755 582.638 486.512 579.761 495.302C574.788 510.502 553.682 560.114 543.867 579.681C525.659 615.975 508.984 638.821 485.131 660.153C479.324 665.347 476.346 668.895 472.985 674.624C458.147 699.919 455.25 702.279 432.033 708.006C414.185 712.409 411.535 713.5 381.976 728.604C341.493 749.289 315.483 763.979 289.904 780.603C280.095 786.979 278.698 788.187 279.225 789.838C280.85 794.925 280.717 796.755 278.437 800.646C276.022 804.765 267.901 812.74 263.426 815.383C262.016 816.216 260.208 818.27 259.407 819.949C258.167 822.551 257.614 822.918 255.672 822.43C253.825 821.967 253.5 822.136 253.954 823.319C254.262 824.122 254.259 825.797 253.947 827.04C253.497 828.833 252.807 829.301 250.62 829.301C248.329 829.301 247.953 829.591 248.403 831.008C248.701 831.946 248.447 833.803 247.841 835.136C246.982 837.02 246.286 837.445 244.704 837.048C242.952 836.609 242.683 836.885 242.745 839.068C242.79 840.646 241.249 843.965 238.649 847.895C235.251 853.031 233.717 856.845 230.336 868.561C225.038 886.919 224.217 888.83 221.119 890.008C217.37 891.433 210.311 891.357 208.508 889.873C206.013 887.821 202.288 878.62 199.01 866.412C196.151 855.768 195.979 854.294 196.102 841.521C196.234 827.967 198.274 815.815 201.911 806.922C202.991 804.283 202.765 802.679 199.56 790.177C196.414 777.899 196.015 775.134 196 765.488C195.982 752.786 197.124 748.08 201.345 743.474C204.042 740.531 204.869 740.163 208.757 740.173C211.165 740.18 217.411 741.363 222.639 742.803C232.563 745.535 242.251 746.199 250.792 744.729C255.628 743.897 258.845 745.152 258.845 747.87C258.845 748.848 259.16 749.648 259.545 749.648C261.065 749.648 274.841 741.263 281.267 736.426C296.881 724.674 307.7 713.604 323.845 692.858C331.28 683.303 342.154 672.973 348.604 669.337C355.722 665.323 362.258 663.279 376.905 660.485C393.073 657.401 398.422 655.377 403.307 650.491C410.624 643.174 414.258 633.547 419.493 607.616C424.048 585.047 430.816 566.531 439.866 551.874C451.559 532.935 451.188 533.838 451.188 524.306C451.188 515.908 451.07 515.416 446.946 506.617C442.019 496.106 440.183 489.542 439.345 479.444C437.999 463.221 442.854 444.873 454.667 421.533C461.271 408.486 462.66 406.402 468.684 400.509C475.065 394.267 475.489 393.59 477.964 385.694C480.246 378.416 482.602 373.491 492.248 355.84C494.513 351.698 494.513 351.698 491.183 329.138C487.725 305.71 486.036 288.311 486.036 276.126C486.036 272.215 485.665 269.016 485.212 269.016C484.758 269.016 480.584 270.017 475.934 271.24C471.285 272.462 458.52 275.311 447.568 277.568C426.899 281.829 413.782 284.829 413.242 285.419C413.069 285.607 410.798 290.038 408.195 295.265C400.957 309.8 396.377 316.033 381.756 331.244C364.271 349.434 353.147 364.028 347.394 376.322C343.998 383.579 344.472 385.455 352.228 395.46C357.705 402.525 357.705 402.525 357.312 414.434C357.009 423.574 356.564 426.884 355.396 428.667C354.499 430.037 350.663 432.523 346.058 434.721C341.76 436.773 336.61 439.634 334.613 441.079C328.367 445.605 326.262 444.791 308.628 431.034C296.707 421.734 296.817 424.707 307.283 394.709C312.208 380.588 318.369 364.505 320.971 358.968C323.574 353.432 329.559 340.195 334.271 329.551C350.422 293.073 358.154 278.143 369.484 261.557C375.648 252.535 379.585 249.307 392.478 242.703C402.778 237.427 407.26 234.173 419.055 223.403C435.752 208.158 444.992 203.531 461.662 202.068C471.656 201.191 471.656 201.191 478.833 194.524C499.628 175.205 526.377 169.275 546.754 179.466C549.53 180.855 553.705 183.443 556.029 185.217C560.255 188.442 560.255 188.442 570.892 187.904C576.742 187.607 585.789 187.305 590.996 187.232C600.463 187.1 600.463 187.1 601.116 183.932C601.475 182.189 601.387 176.691 600.919 171.712C599.009 151.372 598.889 140.382 600.484 131.953C601.325 127.51 602.561 122.825 603.231 121.544Z"/>
</mask>
<path d="M603.231 121.544C608.05 112.324 628.625 103.721 654.19 100.235C676.975 97.1283 687.767 99.7541 692.598 109.582C694.38 113.207 694.674 115.273 694.747 124.645C694.809 132.625 695.226 136.389 696.319 138.832C697.138 140.661 697.727 143.998 697.63 146.246C697.482 149.64 697.944 150.947 700.351 153.942C703.963 158.437 705.476 161.683 704.792 163.467C704.502 164.223 702.616 165.683 700.6 166.711C697.201 168.446 696.933 168.858 696.903 172.409C696.886 174.516 696.331 178.497 695.67 181.26C694.94 184.307 694.643 189.004 694.912 193.206C695.347 199.976 695.295 200.194 692.595 202.894C689.929 205.56 689.556 205.655 681.743 205.655C669.588 205.655 665.496 206.398 664.894 208.71C664.619 209.768 661.705 214.911 658.42 220.138C651.089 231.798 651.083 232.982 658.279 244.414C661 248.735 663.933 253.664 664.797 255.367C666.163 258.062 666.481 258.261 667.245 256.896C667.982 255.578 668.941 255.42 673.251 255.912C690.512 257.88 705.086 265.982 713.602 278.347C715.473 281.063 718.342 286.693 719.979 290.859C722.954 298.433 722.954 298.433 730.537 302.141C748.091 310.726 753.77 325.773 750.258 354.399C749.72 358.795 749.489 362.602 749.746 362.859C750.236 363.349 765.643 354.194 773.42 348.793C783.984 341.455 792.631 330.976 797.309 319.842C800.286 312.759 800.061 310.576 795.717 304.383C793.64 301.423 790.422 295.819 788.564 291.929C785.602 285.725 785.198 284.074 785.276 278.491C785.386 270.608 786.483 268.441 790.977 267.231C794.475 266.288 794.475 266.288 794.876 260.742C795.348 254.207 796.756 252.723 802.484 252.723C806.886 252.723 828.482 256.861 830.938 258.176C834.798 260.242 840.854 273.194 840.854 279.386C840.854 282.376 835.464 309.798 833.665 315.955C833.177 317.626 831.204 321.088 829.28 323.648C823.812 330.925 818.516 340.529 811.331 356.2C797.339 386.718 785.288 404.602 767.255 421.612C756.034 432.195 749.722 436.015 743.454 436.015C740.105 436.015 738.216 435.52 736.851 434.285C735.801 433.335 734.742 432.756 734.498 432.998C734.256 433.242 732.007 448.684 729.503 467.313C727 485.943 718.357 602.907 718.137 603.529C723.436 601.733 725.418 602.443 735.19 609.637C740.923 613.857 741.2 614.22 739.563 615.366C737.402 616.881 733.644 622.827 734.382 623.565C734.68 623.863 736.949 622.212 739.425 619.897C742.74 616.796 744.651 615.687 746.68 615.687C749.942 615.687 750.283 617.353 747.531 619.844C745.507 621.675 742.665 626.548 743.62 626.548C743.933 626.548 746.228 624.716 748.72 622.475C751.837 619.673 754.05 618.402 755.814 618.402C759.522 618.402 759.776 619.687 756.681 622.782C754.376 625.089 753.012 628.359 754.357 628.359C754.576 628.359 756.637 626.73 758.938 624.738C761.773 622.284 763.979 621.118 765.782 621.118C768.956 621.118 769.105 622.103 766.47 625.669C763.505 629.679 765.161 629.947 769.932 626.23C776.276 621.287 780.8 621.934 777.983 627.382C775.868 631.472 776.282 631.726 779.689 628.424C782.73 625.477 782.894 625.432 788.062 626.169C794.541 627.093 801.503 626.8 813.014 625.12C826.055 623.217 836.975 623.407 840.569 625.598C845.489 628.598 847.868 634.94 845.868 639.726C840.428 652.746 808.787 672.687 780.334 681.027C771.484 683.62 769.533 683.861 756.222 683.996C740.475 684.157 737.959 684.674 729.008 689.591C725.989 691.249 721.101 693.444 718.147 694.468C711.454 696.787 693.867 699.865 687.313 699.865C675.313 699.865 670.504 693.565 672.706 680.727C673.705 674.902 673.601 673.956 670.756 663.007C665.341 642.163 665.196 639.582 669.294 636.897C672.018 635.112 673.321 635.776 676.962 640.805C675.348 625.575 687.313 511 667.581 493.234C656.327 483.101 656.988 443.437 656.327 427.962C655.751 414.477 655.751 414.477 649.269 422.984C632.742 444.668 613.701 463.902 596.563 476.224C583.305 485.755 582.638 486.512 579.761 495.302C574.788 510.502 553.682 560.114 543.867 579.681C525.659 615.975 508.984 638.821 485.131 660.153C479.324 665.347 476.346 668.895 472.985 674.624C458.147 699.919 455.25 702.279 432.033 708.006C414.185 712.409 411.535 713.5 381.976 728.604C341.493 749.289 315.483 763.979 289.904 780.603C280.095 786.979 278.698 788.187 279.225 789.838C280.85 794.925 280.717 796.755 278.437 800.646C276.022 804.765 267.901 812.74 263.426 815.383C262.016 816.216 260.208 818.27 259.407 819.949C258.167 822.551 257.614 822.918 255.672 822.43C253.825 821.967 253.5 822.136 253.954 823.319C254.262 824.122 254.259 825.797 253.947 827.04C253.497 828.833 252.807 829.301 250.62 829.301C248.329 829.301 247.953 829.591 248.403 831.008C248.701 831.946 248.447 833.803 247.841 835.136C246.982 837.02 246.286 837.445 244.704 837.048C242.952 836.609 242.683 836.885 242.745 839.068C242.79 840.646 241.249 843.965 238.649 847.895C235.251 853.031 233.717 856.845 230.336 868.561C225.038 886.919 224.217 888.83 221.119 890.008C217.37 891.433 210.311 891.357 208.508 889.873C206.013 887.821 202.288 878.62 199.01 866.412C196.151 855.768 195.979 854.294 196.102 841.521C196.234 827.967 198.274 815.815 201.911 806.922C202.991 804.283 202.765 802.679 199.56 790.177C196.414 777.899 196.015 775.134 196 765.488C195.982 752.786 197.124 748.08 201.345 743.474C204.042 740.531 204.869 740.163 208.757 740.173C211.165 740.18 217.411 741.363 222.639 742.803C232.563 745.535 242.251 746.199 250.792 744.729C255.628 743.897 258.845 745.152 258.845 747.87C258.845 748.848 259.16 749.648 259.545 749.648C261.065 749.648 274.841 741.263 281.267 736.426C296.881 724.674 307.7 713.604 323.845 692.858C331.28 683.303 342.154 672.973 348.604 669.337C355.722 665.323 362.258 663.279 376.905 660.485C393.073 657.401 398.422 655.377 403.307 650.491C410.624 643.174 414.258 633.547 419.493 607.616C424.048 585.047 430.816 566.531 439.866 551.874C451.559 532.935 451.188 533.838 451.188 524.306C451.188 515.908 451.07 515.416 446.946 506.617C442.019 496.106 440.183 489.542 439.345 479.444C437.999 463.221 442.854 444.873 454.667 421.533C461.271 408.486 462.66 406.402 468.684 400.509C475.065 394.267 475.489 393.59 477.964 385.694C480.246 378.416 482.602 373.491 492.248 355.84C494.513 351.698 494.513 351.698 491.183 329.138C487.725 305.71 486.036 288.311 486.036 276.126C486.036 272.215 485.665 269.016 485.212 269.016C484.758 269.016 480.584 270.017 475.934 271.24C471.285 272.462 458.52 275.311 447.568 277.568C426.899 281.829 413.782 284.829 413.242 285.419C413.069 285.607 410.798 290.038 408.195 295.265C400.957 309.8 396.377 316.033 381.756 331.244C364.271 349.434 353.147 364.028 347.394 376.322C343.998 383.579 344.472 385.455 352.228 395.46C357.705 402.525 357.705 402.525 357.312 414.434C357.009 423.574 356.564 426.884 355.396 428.667C354.499 430.037 350.663 432.523 346.058 434.721C341.76 436.773 336.61 439.634 334.613 441.079C328.367 445.605 326.262 444.791 308.628 431.034C296.707 421.734 296.817 424.707 307.283 394.709C312.208 380.588 318.369 364.505 320.971 358.968C323.574 353.432 329.559 340.195 334.271 329.551C350.422 293.073 358.154 278.143 369.484 261.557C375.648 252.535 379.585 249.307 392.478 242.703C402.778 237.427 407.26 234.173 419.055 223.403C435.752 208.158 444.992 203.531 461.662 202.068C471.656 201.191 471.656 201.191 478.833 194.524C499.628 175.205 526.377 169.275 546.754 179.466C549.53 180.855 553.705 183.443 556.029 185.217C560.255 188.442 560.255 188.442 570.892 187.904C576.742 187.607 585.789 187.305 590.996 187.232C600.463 187.1 600.463 187.1 601.116 183.932C601.475 182.189 601.387 176.691 600.919 171.712C599.009 151.372 598.889 140.382 600.484 131.953C601.325 127.51 602.561 122.825 603.231 121.544Z" fill="#0C0052"/>
<path d="M603.231 121.544C608.05 112.324 628.625 103.721 654.19 100.235C676.975 97.1283 687.767 99.7541 692.598 109.582C694.38 113.207 694.674 115.273 694.747 124.645C694.809 132.625 695.226 136.389 696.319 138.832C697.138 140.661 697.727 143.998 697.63 146.246C697.482 149.64 697.944 150.947 700.351 153.942C703.963 158.437 705.476 161.683 704.792 163.467C704.502 164.223 702.616 165.683 700.6 166.711C697.201 168.446 696.933 168.858 696.903 172.409C696.886 174.516 696.331 178.497 695.67 181.26C694.94 184.307 694.643 189.004 694.912 193.206C695.347 199.976 695.295 200.194 692.595 202.894C689.929 205.56 689.556 205.655 681.743 205.655C669.588 205.655 665.496 206.398 664.894 208.71C664.619 209.768 661.705 214.911 658.42 220.138C651.089 231.798 651.083 232.982 658.279 244.414C661 248.735 663.933 253.664 664.797 255.367C666.163 258.062 666.481 258.261 667.245 256.896C667.982 255.578 668.941 255.42 673.251 255.912C690.512 257.88 705.086 265.982 713.602 278.347C715.473 281.063 718.342 286.693 719.979 290.859C722.954 298.433 722.954 298.433 730.537 302.141C748.091 310.726 753.77 325.773 750.258 354.399C749.72 358.795 749.489 362.602 749.746 362.859C750.236 363.349 765.643 354.194 773.42 348.793C783.984 341.455 792.631 330.976 797.309 319.842C800.286 312.759 800.061 310.576 795.717 304.383C793.64 301.423 790.422 295.819 788.564 291.929C785.602 285.725 785.198 284.074 785.276 278.491C785.386 270.608 786.483 268.441 790.977 267.231C794.475 266.288 794.475 266.288 794.876 260.742C795.348 254.207 796.756 252.723 802.484 252.723C806.886 252.723 828.482 256.861 830.938 258.176C834.798 260.242 840.854 273.194 840.854 279.386C840.854 282.376 835.464 309.798 833.665 315.955C833.177 317.626 831.204 321.088 829.28 323.648C823.812 330.925 818.516 340.529 811.331 356.2C797.339 386.718 785.288 404.602 767.255 421.612C756.034 432.195 749.722 436.015 743.454 436.015C740.105 436.015 738.216 435.52 736.851 434.285C735.801 433.335 734.742 432.756 734.498 432.998C734.256 433.242 732.007 448.684 729.503 467.313C727 485.943 718.357 602.907 718.137 603.529C723.436 601.733 725.418 602.443 735.19 609.637C740.923 613.857 741.2 614.22 739.563 615.366C737.402 616.881 733.644 622.827 734.382 623.565C734.68 623.863 736.949 622.212 739.425 619.897C742.74 616.796 744.651 615.687 746.68 615.687C749.942 615.687 750.283 617.353 747.531 619.844C745.507 621.675 742.665 626.548 743.62 626.548C743.933 626.548 746.228 624.716 748.72 622.475C751.837 619.673 754.05 618.402 755.814 618.402C759.522 618.402 759.776 619.687 756.681 622.782C754.376 625.089 753.012 628.359 754.357 628.359C754.576 628.359 756.637 626.73 758.938 624.738C761.773 622.284 763.979 621.118 765.782 621.118C768.956 621.118 769.105 622.103 766.47 625.669C763.505 629.679 765.161 629.947 769.932 626.23C776.276 621.287 780.8 621.934 777.983 627.382C775.868 631.472 776.282 631.726 779.689 628.424C782.73 625.477 782.894 625.432 788.062 626.169C794.541 627.093 801.503 626.8 813.014 625.12C826.055 623.217 836.975 623.407 840.569 625.598C845.489 628.598 847.868 634.94 845.868 639.726C840.428 652.746 808.787 672.687 780.334 681.027C771.484 683.62 769.533 683.861 756.222 683.996C740.475 684.157 737.959 684.674 729.008 689.591C725.989 691.249 721.101 693.444 718.147 694.468C711.454 696.787 693.867 699.865 687.313 699.865C675.313 699.865 670.504 693.565 672.706 680.727C673.705 674.902 673.601 673.956 670.756 663.007C665.341 642.163 665.196 639.582 669.294 636.897C672.018 635.112 673.321 635.776 676.962 640.805C675.348 625.575 687.313 511 667.581 493.234C656.327 483.101 656.988 443.437 656.327 427.962C655.751 414.477 655.751 414.477 649.269 422.984C632.742 444.668 613.701 463.902 596.563 476.224C583.305 485.755 582.638 486.512 579.761 495.302C574.788 510.502 553.682 560.114 543.867 579.681C525.659 615.975 508.984 638.821 485.131 660.153C479.324 665.347 476.346 668.895 472.985 674.624C458.147 699.919 455.25 702.279 432.033 708.006C414.185 712.409 411.535 713.5 381.976 728.604C341.493 749.289 315.483 763.979 289.904 780.603C280.095 786.979 278.698 788.187 279.225 789.838C280.85 794.925 280.717 796.755 278.437 800.646C276.022 804.765 267.901 812.74 263.426 815.383C262.016 816.216 260.208 818.27 259.407 819.949C258.167 822.551 257.614 822.918 255.672 822.43C253.825 821.967 253.5 822.136 253.954 823.319C254.262 824.122 254.259 825.797 253.947 827.04C253.497 828.833 252.807 829.301 250.62 829.301C248.329 829.301 247.953 829.591 248.403 831.008C248.701 831.946 248.447 833.803 247.841 835.136C246.982 837.02 246.286 837.445 244.704 837.048C242.952 836.609 242.683 836.885 242.745 839.068C242.79 840.646 241.249 843.965 238.649 847.895C235.251 853.031 233.717 856.845 230.336 868.561C225.038 886.919 224.217 888.83 221.119 890.008C217.37 891.433 210.311 891.357 208.508 889.873C206.013 887.821 202.288 878.62 199.01 866.412C196.151 855.768 195.979 854.294 196.102 841.521C196.234 827.967 198.274 815.815 201.911 806.922C202.991 804.283 202.765 802.679 199.56 790.177C196.414 777.899 196.015 775.134 196 765.488C195.982 752.786 197.124 748.08 201.345 743.474C204.042 740.531 204.869 740.163 208.757 740.173C211.165 740.18 217.411 741.363 222.639 742.803C232.563 745.535 242.251 746.199 250.792 744.729C255.628 743.897 258.845 745.152 258.845 747.87C258.845 748.848 259.16 749.648 259.545 749.648C261.065 749.648 274.841 741.263 281.267 736.426C296.881 724.674 307.7 713.604 323.845 692.858C331.28 683.303 342.154 672.973 348.604 669.337C355.722 665.323 362.258 663.279 376.905 660.485C393.073 657.401 398.422 655.377 403.307 650.491C410.624 643.174 414.258 633.547 419.493 607.616C424.048 585.047 430.816 566.531 439.866 551.874C451.559 532.935 451.188 533.838 451.188 524.306C451.188 515.908 451.07 515.416 446.946 506.617C442.019 496.106 440.183 489.542 439.345 479.444C437.999 463.221 442.854 444.873 454.667 421.533C461.271 408.486 462.66 406.402 468.684 400.509C475.065 394.267 475.489 393.59 477.964 385.694C480.246 378.416 482.602 373.491 492.248 355.84C494.513 351.698 494.513 351.698 491.183 329.138C487.725 305.71 486.036 288.311 486.036 276.126C486.036 272.215 485.665 269.016 485.212 269.016C484.758 269.016 480.584 270.017 475.934 271.24C471.285 272.462 458.52 275.311 447.568 277.568C426.899 281.829 413.782 284.829 413.242 285.419C413.069 285.607 410.798 290.038 408.195 295.265C400.957 309.8 396.377 316.033 381.756 331.244C364.271 349.434 353.147 364.028 347.394 376.322C343.998 383.579 344.472 385.455 352.228 395.46C357.705 402.525 357.705 402.525 357.312 414.434C357.009 423.574 356.564 426.884 355.396 428.667C354.499 430.037 350.663 432.523 346.058 434.721C341.76 436.773 336.61 439.634 334.613 441.079C328.367 445.605 326.262 444.791 308.628 431.034C296.707 421.734 296.817 424.707 307.283 394.709C312.208 380.588 318.369 364.505 320.971 358.968C323.574 353.432 329.559 340.195 334.271 329.551C350.422 293.073 358.154 278.143 369.484 261.557C375.648 252.535 379.585 249.307 392.478 242.703C402.778 237.427 407.26 234.173 419.055 223.403C435.752 208.158 444.992 203.531 461.662 202.068C471.656 201.191 471.656 201.191 478.833 194.524C499.628 175.205 526.377 169.275 546.754 179.466C549.53 180.855 553.705 183.443 556.029 185.217C560.255 188.442 560.255 188.442 570.892 187.904C576.742 187.607 585.789 187.305 590.996 187.232C600.463 187.1 600.463 187.1 601.116 183.932C601.475 182.189 601.387 176.691 600.919 171.712C599.009 151.372 598.889 140.382 600.484 131.953C601.325 127.51 602.561 122.825 603.231 121.544Z" stroke="white" stroke-width="40" mask="url(#path-3-outside-1_47_84)"/>
<path fill-rule="evenodd" clip-rule="evenodd" d="M676.913 118.445C680.161 120.067 683.103 122.33 684.283 124.112C686.312 127.179 691.193 140.632 690.521 141.306C690.312 141.515 688.274 140.401 685.993 138.833C680.076 134.761 676.244 133.365 670.989 133.365C666.222 133.365 660.252 135.671 661.623 136.983C662.054 137.394 664.85 138.966 667.837 140.475C670.824 141.983 674.878 144.87 676.846 146.89C678.814 148.91 680.828 150.562 681.322 150.562C681.816 150.562 683.339 149.492 684.705 148.182C686.123 146.824 687.77 146.024 688.541 146.32C690.324 147.004 699.165 159.624 698.554 160.612C698.293 161.034 696.297 161.135 694.115 160.835C688.879 160.117 683.677 161.123 683.677 162.852C683.677 164.23 684.189 164.513 688.325 165.413C690.172 165.815 690.812 166.598 691.159 168.883C691.406 170.506 691.465 172.08 691.29 172.381C691.116 172.682 688.822 172.58 686.193 172.154C681.143 171.334 676.436 171.869 676.436 173.263C676.436 173.722 677.671 174.096 679.18 174.096C682.56 174.096 687.321 176.014 689.017 178.059C690.084 179.344 690.095 180.158 689.089 183.206C688.044 186.374 688.09 187.234 689.458 190.105C692.151 195.751 689.842 195.758 674.626 190.15C659.884 184.717 646.58 178.496 643.836 175.753C642.389 174.305 640.934 171.682 640.604 169.924C640.275 168.165 638.978 165.506 637.725 164.017C635.522 161.399 635.26 161.327 629.917 161.9C625.035 162.423 624.084 162.253 621.79 160.448C618.333 157.728 616.696 153.522 616.696 147.354C616.696 142.949 617.047 141.926 619.342 139.631C622.438 136.536 625.035 136.272 627.558 138.796C629.816 141.054 629.946 142.852 627.784 141.944C626.914 141.578 625.289 141.08 624.175 140.838C621.511 140.26 620.49 142.823 622.5 145.044C623.629 146.291 623.863 147.675 623.452 150.667C622.906 154.636 622.906 154.636 624.779 152.499C625.81 151.324 626.653 149.79 626.653 149.092C626.653 148.175 627.596 148.444 630.047 150.065C631.915 151.298 636.352 152.919 639.909 153.665C643.466 154.412 648.557 155.852 651.223 156.866C653.889 157.879 656.375 158.708 656.749 158.708C658.877 158.71 656.583 155.426 650.187 149.315C646.204 145.51 642.946 141.803 642.946 141.078C642.946 139.464 651.294 133.039 655.885 131.121C657.729 130.351 659.237 129.42 659.236 129.053C659.234 128.686 657.642 125.742 655.695 122.512C653.75 119.281 652.377 116.284 652.645 115.851C652.912 115.418 657.265 115.218 662.318 115.405C670.313 115.701 672.209 116.096 676.913 118.445ZM625.916 174.035C629.9 177.167 631.633 185.303 631.619 200.798C631.609 213.211 631.349 215.384 628.587 226.142C626.926 232.614 625.287 238.417 624.945 239.037C624.507 239.83 622.271 238.686 617.424 235.19C613.63 232.454 610.257 230.215 609.928 230.215C609.169 230.215 619.294 242.482 622.905 245.937C625.216 248.147 626.669 248.64 632.697 249.255C641.773 250.181 646.535 251.832 658.786 258.298C664.262 261.189 670.875 264.175 673.481 264.935C687.119 268.909 701.705 279.762 707.157 289.99C708.776 293.028 709.949 295.665 709.764 295.849C709.141 296.474 697.738 298.088 693.906 298.094C690.267 298.101 689.929 297.856 685.985 292.328C679.848 283.728 679.156 283.363 679.132 288.713C679.121 291.138 678.363 294.77 677.449 296.784C675.653 300.737 678.276 300.004 631.405 309.66C629.368 310.079 629.368 310.079 629.368 287.399C629.368 274.886 629.002 264.491 628.551 264.213C628.102 263.935 627.319 264.9 626.811 266.356C624.004 274.409 614.54 285.723 608.097 288.73C602.559 291.315 597.843 291.409 590.316 289.082C579.641 285.783 573.13 280.582 559.661 264.593C549.827 252.918 542.43 245.809 536.504 242.336C534.312 241.051 532.518 239.654 532.518 239.232C532.518 238.811 535.471 236.185 539.08 233.397C542.689 230.61 547.578 226.826 549.942 224.991C552.306 223.154 554.241 221.181 554.241 220.605C554.241 219.856 547.195 219.371 529.35 218.893C515.659 218.526 504.458 217.88 504.458 217.457C504.458 217.035 506.8 216.038 509.663 215.243C512.526 214.449 515.377 213.636 515.999 213.437C517.366 212.999 517.516 211.207 516.186 211.207C513.959 211.207 489.527 208.344 489.231 208.048C487.216 206.033 500.698 192.367 508.478 188.539C524.231 180.787 539.184 183.916 564.688 200.304C580.17 210.251 582.3 211.51 582.799 211.011C583.03 210.779 581.18 207.896 578.687 204.602C576.194 201.309 574.154 198.394 574.154 198.122C574.154 197.447 588.143 197.497 589.92 198.179C590.843 198.533 591.352 199.839 591.352 201.844C591.352 204.777 596.135 213.761 598.463 215.2C598.996 215.529 604.054 206.564 610.406 194.028C616.467 182.07 621.936 172.286 622.56 172.286C623.184 172.286 624.693 173.073 625.916 174.035ZM464.328 212.339C461.103 219.66 459.176 225.07 458.674 228.214C458.077 231.951 458.116 232.026 460.669 232.028C465.907 232.035 479.45 234.897 486.769 237.545C499.193 242.041 499.193 242.048 486.265 246.303C480.092 248.335 471.855 250.434 467.961 250.968C459.175 252.172 437.676 252.274 438.88 251.104C439.599 250.406 453.807 243.175 461.916 239.38C466.217 237.367 449.308 239.097 440.645 241.556C426.167 245.666 400.983 259.168 384.663 271.571C381.75 273.784 379.175 275.401 378.939 275.165C377.552 273.778 390.825 254.192 396.463 249.307C398.858 247.23 406.276 242.816 412.945 239.496C422.208 234.886 426.556 232.098 431.359 227.69C439.467 220.251 447.285 215.232 454.166 213.049C460.669 210.987 465.057 210.68 464.328 212.339ZM817.487 259.7C824.372 260.726 827.905 261.649 828.234 262.506C828.503 263.209 828.551 263.957 828.339 264.169C827.582 264.926 802.269 262.276 801.335 261.342C800.811 260.817 800.656 259.674 800.99 258.802C801.452 257.599 802.279 257.331 804.415 257.693C805.962 257.955 811.845 258.859 817.487 259.7ZM831.622 268.792C832.461 269.113 833.026 270.428 833.026 272.058C833.026 274.786 833.026 274.786 821.486 274.181C815.138 273.85 808.866 273.37 807.548 273.116C805.172 272.658 803.572 269.757 804.693 267.942C805.259 267.026 828.972 267.774 831.622 268.792ZM797.356 274.729C798.755 277.433 798.747 277.676 797.206 278.802C795.167 280.293 792.098 280.345 790.665 278.912C788.983 277.23 789.313 272.959 791.163 272.476C794.763 271.535 795.923 271.957 797.356 274.729ZM834.837 281.183C834.837 285.901 833.221 287.438 829.412 286.34C827.672 285.839 823.549 285.429 820.247 285.429C809.537 285.429 806.459 283.974 808.623 279.933C809.476 278.337 810.641 278.188 822.196 278.188C834.837 278.188 834.837 278.188 834.837 281.183ZM571.659 298.96C576.893 300.926 585.398 303.382 590.559 304.417C607.038 307.72 606.74 307.586 606.74 311.67C606.74 313.619 606.276 316.231 605.709 317.476C604.625 319.855 604.241 320.07 590.264 326.132C562.825 338.033 536.62 359.271 499.207 399.93C494.168 405.406 490.03 409.442 490.01 408.897C489.908 405.982 503.921 388.27 519.316 371.854C528.29 362.286 528.29 362.286 522.258 347.155C518.94 338.832 516.225 331.771 516.225 331.462C516.225 331.155 522.03 333.034 529.123 335.64C536.217 338.245 542.145 340.068 542.295 339.69C542.445 339.313 538.246 330.368 532.964 319.812C527.681 309.257 523.559 300.423 523.8 300.18C524.043 299.939 527.427 302.329 531.321 305.494C543.023 315.002 561.482 325.978 561.482 323.426C561.482 322.905 558.428 317.999 554.694 312.525C548.8 303.883 546.793 299.912 548.318 299.912C548.544 299.912 550.268 300.955 552.148 302.231C555.326 304.388 569.936 311.679 571.08 311.679C571.36 311.679 569.391 308.521 566.702 304.664C560.546 295.827 560.29 295.386 561.306 295.386C561.766 295.386 566.424 296.994 571.659 298.96ZM722.131 311.361C728.005 313.362 733.731 319.275 735.82 325.495C738.086 332.243 737.753 340.535 733.992 370.966C732.208 385.403 730.748 397.491 730.747 397.829C730.746 398.165 728.348 399.898 725.418 401.677C719.042 405.55 720.084 399.744 716.235 452.881C714.703 474.039 713.28 491.86 713.074 492.482C712.849 493.159 711.097 493.613 708.708 493.613C706.513 493.613 704.306 493.104 703.805 492.482C703.191 491.72 703.289 479.961 704.104 456.502C704.771 437.335 705.336 418.349 705.358 414.31C705.401 406.966 705.401 406.966 700.196 404.673C689.834 400.108 690.918 397.548 690.918 426.571C690.918 440.544 690.561 451.976 690.125 451.976C688.248 451.976 682.944 435.368 679.669 419.236C677.156 406.85 676.366 399.245 676.352 387.235C676.335 374.039 677.974 364.175 681.515 356.168C688.023 341.454 684.944 336.883 673.268 343.922C665.7 348.483 653.159 358.043 642.667 367.249C637.784 371.533 633.56 375.039 633.281 375.039C631.974 375.039 646.295 357.272 652.714 350.927C657.88 345.822 657.88 345.822 654.768 346.413C650.353 347.249 638.795 352.382 629.744 357.525C621.062 362.458 603.706 375.099 597.999 380.645C595.93 382.656 593.803 384.034 593.275 383.707C592.746 383.381 591.283 379.85 590.023 375.861C588.153 369.942 587.732 366.788 587.732 358.699C587.732 353.249 587.541 348.79 587.307 348.79C586.127 348.79 571.646 357.918 570.081 359.648C568.509 361.386 568.229 363.19 567.952 373.37C567.324 396.515 572.788 416.236 584.457 432.938C586.706 436.157 588.382 438.956 588.181 439.157C587.525 439.812 580.653 433.885 575.619 428.322C565.575 417.223 560.274 402.095 559.09 381.149C558.585 372.21 558.256 370.513 557.027 370.513C554.925 370.513 539.887 382.034 529.552 391.562C524.682 396.053 520.519 399.548 520.302 399.33C518.74 397.769 536.772 377.66 548.639 367.727C579.532 341.871 617.901 324.902 669.254 314.382C695.711 308.962 712.308 308.014 722.131 311.361ZM700.422 334.208C698.431 335.126 695.794 336.972 694.564 338.307C692.435 340.617 692.291 341.498 691.603 356.303C690.863 372.217 691.27 380.424 692.958 383.638C694.381 386.35 708.271 400.383 709.532 400.383C710.134 400.383 714.076 396.758 718.293 392.327C727.465 382.688 727.623 382.225 728.961 361.016C729.886 346.356 729.855 345.773 727.957 341.852C726.048 337.908 721.689 334.245 717.394 332.977C714.635 332.162 714.833 332.958 718.121 335.904C722.385 339.725 723.695 348.113 721.573 358.008C720.153 364.63 716.08 368.703 710.877 368.703C701.757 368.703 698.637 364.196 698.664 351.052C698.684 341.051 700.24 335.823 703.508 334.786C704.549 334.456 705.401 333.806 705.401 333.341C705.401 332.154 704.553 332.3 700.422 334.208Z" fill="white"/>
<path d="M346.166 400.901C344.161 398.623 340.542 395.307 338.125 393.532C331.065 388.35 331.007 388.842 337.383 399.81C342.119 407.956 342.119 407.956 342.119 417.687C342.119 423.039 342.241 427.417 342.39 427.417C343.26 427.417 348.562 424.286 349.12 423.443C349.485 422.891 349.791 418.525 349.799 413.741C349.812 405.044 349.812 405.044 346.166 400.901L346.166 400.901Z" fill="white"/>
</g>
</g>
<defs>
<filter id="filter0_d_47_84" x="-5" y="16" width="1003" height="1030" filterUnits="userSpaceOnUse" color-interpolation-filters="sRGB">
<feFlood flood-opacity="0" result="BackgroundImageFix"/>
<feColorMatrix in="SourceAlpha" type="matrix" values="0 0 0 0 0 0 0 0 0 0 0 0 0 0 0 0 0 0 127 0" result="hardAlpha"/>
<feOffset dx="-31" dy="37"/>
<feComposite in2="hardAlpha" operator="out"/>
<feColorMatrix type="matrix" values="0 0 0 0 0 0 0 0 0 0 0 0 0 0 0 0 0 0 0.25 0"/>
<feBlend mode="normal" in2="BackgroundImageFix" result="effect1_dropShadow_47_84"/>
<feBlend mode="normal" in="SourceGraphic" in2="effect1_dropShadow_47_84" result="shape"/>
</filter>
<filter id="filter1_d_47_84" x="145" y="79" width="721.621" height="869.033" filterUnits="userSpaceOnUse" color-interpolation-filters="sRGB">
<feFlood flood-opacity="0" result="BackgroundImageFix"/>
<feColorMatrix in="SourceAlpha" type="matrix" values="0 0 0 0 0 0 0 0 0 0 0 0 0 0 0 0 0 0 127 0" result="hardAlpha"/>
<feOffset dx="-31" dy="37"/>
<feComposite in2="hardAlpha" operator="out"/>
<feColorMatrix type="matrix" values="0 0 0 0 0 0 0 0 0 0 0 0 0 0 0 0 0 0 0.25 0"/>
<feBlend mode="normal" in2="BackgroundImageFix" result="effect1_dropShadow_47_84"/>
<feBlend mode="normal" in="SourceGraphic" in2="effect1_dropShadow_47_84" result="shape"/>
</filter>
<linearGradient id="paint0_linear_47_84" x1="512" y1="0" x2="512" y2="1024" gradientUnits="userSpaceOnUse">
<stop stop-color="#162045"/>
<stop offset="1" stop-color="#3E2259"/>
</linearGradient>
<linearGradient id="paint1_linear_47_84" x1="231.5" y1="26.5" x2="596.5" y2="931" gradientUnits="userSpaceOnUse">
<stop stop-color="#E7D3FF"/>
<stop offset="1" stop-color="#566EEF"/>
</linearGradient>
<clipPath id="clip0_47_84">
<rect width="1024" height="1024" rx="250" fill="white"/>
</clipPath>
</defs>
</svg>
