<svg width="832" height="896" viewBox="0 0 832 896" fill="none" xmlns="http://www.w3.org/2000/svg">
<g filter="url(#filter0_d_44_26)">
<path fill-rule="evenodd" clip-rule="evenodd" d="M499.601 73.0145C542.49 78.9059 572.293 87.284 608.64 103.666C629.01 112.846 642.734 120.567 666.419 136.17C707.379 163.15 740.545 195.537 762.635 230.122C782.414 261.088 795.676 289.944 799.912 311.228C801.774 320.583 798.929 332.149 793.707 336.449C786.013 342.785 776.517 341.143 765.646 331.597C757.515 324.457 751.797 317.366 739.607 299.305C716.452 264.998 682.853 237.173 644.55 220.586C626.871 212.929 611.824 210.107 588.839 210.134C561.887 210.167 540.747 213.801 500.405 225.334C470.642 233.842 466.031 234.83 458.231 234.367C451.571 233.973 448.051 232.566 443.86 228.627C440.231 225.216 438.903 222.436 438.903 218.252C438.903 205.603 477.432 210.058 514.707 201.162C526.217 198.415 522.156 175.627 524.86 172.193C527.535 168.795 527.051 165.709 523.281 162.126C514.05 153.353 495.162 148.905 475.405 150.853C447.326 153.622 425.658 161.384 396.129 179.251C377.304 190.641 371.921 192.562 366.564 189.8C362.557 187.732 359.872 183.448 360.423 179.998C360.988 176.461 363.719 173.655 372.392 167.7C380.62 162.05 382.993 159.154 382.993 154.762C382.993 152.274 382.477 151.186 380.429 149.359C371.34 141.245 355.314 146.193 324.87 166.512C306.302 178.905 291.721 192.365 287.333 201.162C285.049 205.741 284.707 211.691 286.526 215.205C288.886 219.765 292.657 219.591 302.714 214.46C308.595 211.459 311.47 210.444 314.086 210.444C323.095 210.444 327.203 217.712 323.045 226.294C320.804 230.918 315.771 235.931 305.277 243.991C285.229 259.388 271.116 275.296 252.739 303.213C240.73 321.456 234.485 326.907 225.597 326.907C218.103 326.907 214.949 322.806 215.565 313.863C215.829 310.024 217.011 306.271 220.561 297.992C225.813 285.743 226.919 279.882 224.764 275.719C221.005 268.456 206.528 271.758 196.292 282.213C190.759 287.865 177.265 307.119 169.582 320.322C160.109 336.605 143.005 364.14 138.375 370.566C129.822 382.433 120.989 389.042 115.515 387.669C111.082 386.558 106.924 380.322 105.257 372.287C103.267 362.692 105.783 348.086 114.552 318.32C127.395 274.724 152.535 228.963 180.435 198.396C202.8 173.894 213.195 163.923 232.283 148.665C264.1 123.23 304.177 101.693 344.038 88.6085C364.055 82.0376 386.816 76.8433 408.44 73.9092C429.02 71.1181 435.037 70.7993 461.816 71.0844C482.203 71.3005 490.045 71.7013 499.601 73.0145ZM796.354 364.664C804.322 368.074 811.164 377.106 815.049 389.342C822.255 412.037 821.57 434.993 813.158 452.766C803.464 473.25 789.009 477.224 774.023 463.525C767.179 457.27 766.562 455.468 766.972 442.968C767.649 422.319 767.248 408.731 765.751 401.614C763.826 392.464 763.933 379.423 765.971 374.821C770.425 364.76 785.108 359.851 796.354 364.664ZM199.278 370.14C200.785 370.948 202.648 372.784 203.42 374.221C204.191 375.657 205.352 377.437 206 378.174C208.397 380.905 208.312 382.881 205.506 389.709C203.998 393.379 201.052 402.166 198.958 409.234C194.41 424.59 193.246 426.733 188.455 428.561C181.34 431.276 174.769 428.636 171.355 421.69C169.356 417.625 169.181 416.484 169.186 407.628C169.192 397.055 170.752 390.31 175.215 381.552C180.671 370.847 191.241 365.834 199.278 370.14ZM124.639 416.549C130.194 418.106 138.857 424.9 141.14 429.49C142.747 432.723 142.843 435.618 142.247 463.048C142.019 473.499 142.236 476.16 143.883 483.128C146.011 492.128 146.347 503.612 144.661 509.632C143.297 514.494 139.08 519.139 133.589 521.823C127.411 524.843 117.948 525.046 112.726 522.27C102.813 517.003 97.3608 508.443 92.7019 490.835C90.2531 481.579 89.1903 461.479 90.6937 452.852C93.6723 435.765 101.885 421.522 111.28 417.151C116.059 414.928 118.469 414.82 124.639 416.549ZM796.74 500.597C802.896 504.67 806.215 516.644 804.67 529.208C803.635 537.637 797.771 561.011 792.856 576.298C786.176 597.081 773.16 625.464 761.232 645.259C749.774 664.274 741.15 675.606 722.859 695.683C688.601 733.286 650.598 761.527 606.525 782.132C571.42 798.544 535.545 808.908 497.182 813.717C479.896 815.884 440.239 816.731 424.194 815.275C395.282 812.651 365.757 806.77 339.345 798.371C295.965 784.577 248.549 758.045 208.975 725.421C196.816 715.397 172.53 691.021 163.633 679.91C140.707 651.28 118.41 609.412 111.201 581.453C106.094 561.644 112.442 546.98 126.126 546.983C138.206 546.984 149.538 557.468 169.966 587.543C190.971 618.469 215.401 640.249 250.914 659.708C271.419 670.944 290.585 676.094 314.694 676.845C343.622 677.747 371.315 673.151 414.785 660.232C441.584 652.268 448.977 651.043 456.701 653.286C469.207 656.918 474.419 667.399 468.186 676.384C461.426 686.129 437.283 697.718 413.177 702.787C401.459 705.251 390.369 709.613 386.517 713.274C382.066 717.504 382.189 720.729 386.969 725.132C399.108 736.31 422.689 739.31 451.771 733.375C473.945 728.85 492.033 721.316 514.876 707.093C533.189 695.69 539.746 693.911 545.349 698.825C546.885 700.172 548.546 702.5 549.04 703.997C550.618 708.77 547.648 712.469 535.865 720.414C527.274 726.205 524.523 731.705 527.846 736.444C529.66 739.032 535.065 741.316 539.428 741.337C548.844 741.383 563.421 734.86 583.021 721.831C598.37 711.628 604.812 706.441 613.539 697.258C621.896 688.466 624.212 684.119 624.212 677.23C624.212 672.601 624 671.958 621.863 670.122C618.673 667.38 615.552 667.965 605.501 673.186C598.235 676.96 597.305 677.244 594.039 676.693C588.927 675.83 585.221 671.973 585.221 667.515C585.221 659.932 589.122 654.834 603.21 644.006C622.993 628.801 638.831 611.136 656.416 584.662C666.008 570.223 671.391 564.241 677.245 561.519C684.727 558.039 691.646 560.28 693.831 566.894C695.403 571.653 694.213 577.338 689.238 588.834C685.473 597.534 684.52 600.622 684.255 604.985C683.944 610.118 684.046 610.497 686.367 612.816C689.222 615.669 691.987 615.927 698.632 613.961C704.962 612.087 709.126 609.387 714.409 603.73C720.264 597.461 734.152 577.289 742.418 563.046C761.417 530.312 771.518 515.093 779.775 506.764C787.621 498.848 791.801 497.329 796.74 500.597ZM255.82 581.453C249.408 585.073 239.332 582.838 229.057 575.518C220.058 569.108 212.714 559.129 206.599 544.997C203.195 537.135 194.782 510.703 192.468 500.606C187.809 480.275 189.201 467.284 196.757 460.597C200.008 457.719 209.608 454.009 212.496 454.515C216.294 455.18 222.615 459.362 225.479 463.104C228.572 467.143 232.976 478.303 236.626 491.348C239.193 500.518 241.796 506.641 249.568 521.783C263.374 548.681 266.441 563.809 260.484 575.617C258.902 578.751 257.501 580.504 255.82 581.453Z" fill="url(#paint0_linear_44_26)"/>
</g>
<g filter="url(#filter1_d_44_26)">
<mask id="path-2-outside-1_44_26" maskUnits="userSpaceOnUse" x="32.9922" y="10" width="691" height="833" fill="black">
<rect fill="white" x="32.9922" y="10" width="691" height="833"/>
<path d="M460.223 52.5437C465.042 43.3239 485.617 34.7205 511.182 31.2348C533.967 28.1283 544.759 30.7541 549.59 40.5822C551.372 44.2073 551.667 46.2729 551.739 55.6448C551.801 63.6245 552.218 67.389 553.311 69.832C554.13 71.6613 554.72 74.9977 554.622 77.2461C554.474 80.6404 554.936 81.9465 557.343 84.9416C560.955 89.4366 562.469 92.6834 561.784 94.4674C561.495 95.2232 559.608 96.6832 557.593 97.7114C554.193 99.4457 553.925 99.8585 553.895 103.409C553.878 105.516 553.323 109.497 552.662 112.26C551.933 115.307 551.635 120.004 551.905 124.206C552.339 130.976 552.287 131.194 549.587 133.894C546.921 136.56 546.548 136.655 538.736 136.655C526.58 136.655 522.488 137.398 521.886 139.71C521.611 140.768 518.697 145.91 515.412 151.138C508.081 162.798 508.075 163.982 515.272 175.414C517.992 179.735 520.925 184.664 521.789 186.367C523.155 189.062 523.473 189.261 524.237 187.896C524.975 186.578 525.933 186.42 530.243 186.912C547.505 188.88 562.078 196.982 570.594 209.347C572.465 212.063 575.334 217.693 576.971 221.859C579.946 229.433 579.946 229.433 587.529 233.141C605.083 241.726 610.762 256.773 607.251 285.399C606.712 289.795 606.481 293.602 606.738 293.859C607.228 294.349 622.635 285.194 630.412 279.793C640.976 272.454 649.623 261.976 654.301 250.842C657.278 243.759 657.053 241.576 652.709 235.383C650.633 232.423 647.414 226.819 645.556 222.928C642.594 216.725 642.19 215.074 642.268 209.491C642.378 201.608 643.475 199.441 647.97 198.231C651.467 197.288 651.467 197.288 651.868 191.742C652.341 185.207 653.748 183.723 659.477 183.723C663.878 183.723 685.474 187.861 687.93 189.176C691.79 191.242 697.846 204.194 697.846 210.386C697.846 213.376 692.456 240.798 690.657 246.955C690.169 248.626 688.196 252.088 686.273 254.648C680.804 261.925 675.508 271.529 668.323 287.2C654.331 317.718 642.28 335.602 624.248 352.612C613.026 363.195 606.714 367.015 600.447 367.015C597.098 367.015 595.208 366.52 593.844 365.285C592.793 364.335 591.734 363.756 591.49 363.998C591.248 364.242 588.999 379.684 586.496 398.313C583.992 416.943 575.35 533.907 575.129 534.529C580.428 532.733 582.41 533.443 592.182 540.637C597.915 544.857 598.192 545.22 596.555 546.366C594.394 547.881 590.636 553.826 591.374 554.565C591.672 554.863 593.941 553.212 596.417 550.896C599.733 547.795 601.643 546.687 603.672 546.687C606.934 546.687 607.275 548.353 604.523 550.844C602.5 552.675 599.657 557.548 600.612 557.548C600.926 557.548 603.22 555.716 605.712 553.475C608.829 550.673 611.042 549.402 612.806 549.402C616.514 549.402 616.768 550.687 613.674 553.782C611.368 556.088 610.004 559.359 611.349 559.359C611.568 559.359 613.629 557.729 615.93 555.738C618.765 553.284 620.971 552.118 622.774 552.118C625.948 552.118 626.098 553.103 623.462 556.669C620.497 560.678 622.153 560.947 626.924 557.23C633.268 552.287 637.792 552.934 634.975 558.382C632.86 562.472 633.275 562.726 636.682 559.424C639.722 556.477 639.886 556.432 645.054 557.169C651.533 558.093 658.496 557.8 670.006 556.12C683.047 554.217 693.967 554.407 697.562 556.598C702.481 559.598 704.86 565.94 702.86 570.726C697.42 583.746 665.779 603.686 637.326 612.026C628.476 614.62 626.525 614.861 613.215 614.996C597.467 615.156 594.952 615.674 586.001 620.591C582.981 622.249 578.093 624.444 575.139 625.468C568.446 627.787 550.859 630.865 544.305 630.865C532.305 630.865 527.496 624.565 529.698 611.727C530.697 605.902 530.593 604.956 527.748 594.007C522.333 573.163 522.189 570.582 526.286 567.897C529.01 566.112 530.313 566.776 533.955 571.805C532.34 556.575 544.305 442 524.573 424.234C513.319 414.101 513.98 374.437 513.319 358.962C512.743 345.477 512.743 345.477 506.261 353.984C489.735 375.668 470.693 394.902 453.555 407.224C440.297 416.755 439.63 417.512 436.754 426.302C431.78 441.502 410.675 491.114 400.859 510.681C382.651 546.975 365.977 569.821 342.123 591.153C336.316 596.347 333.338 599.895 329.977 605.624C315.139 630.919 312.243 633.279 289.025 639.006C271.177 643.409 268.528 644.5 238.968 659.604C198.486 680.289 172.475 694.979 146.896 711.603C137.087 717.979 135.69 719.187 136.217 720.838C137.843 725.925 137.71 727.755 135.43 731.646C133.015 735.765 124.893 743.74 120.419 746.383C119.008 747.216 117.2 749.27 116.399 750.949C115.159 753.551 114.606 753.918 112.664 753.43C110.818 752.967 110.492 753.136 110.946 754.319C111.254 755.122 111.251 756.797 110.939 758.04C110.489 759.833 109.799 760.301 107.613 760.301C105.321 760.301 104.945 760.591 105.395 762.007C105.693 762.946 105.439 764.803 104.833 766.136C103.974 768.02 103.278 768.445 101.697 768.048C99.9441 767.609 99.6753 767.885 99.7369 770.068C99.7821 771.645 98.2416 774.965 95.6411 778.895C92.2432 784.031 90.7089 787.845 87.3282 799.561C82.0304 817.919 81.2094 819.83 78.1111 821.008C74.362 822.433 67.3037 822.357 65.4997 820.873C63.0051 818.821 59.2804 809.62 56.002 797.412C53.1436 786.768 52.9716 785.294 53.0947 772.521C53.2259 758.967 55.2661 746.815 58.903 737.922C59.9828 735.283 59.7575 733.679 56.5523 721.177C53.406 708.899 53.0069 706.134 52.9924 696.488C52.9743 683.786 54.1166 679.08 58.3373 674.474C61.0346 671.531 61.861 671.163 65.7495 671.173C68.1572 671.18 74.4036 672.363 79.6308 673.803C89.5549 676.535 99.2436 677.199 107.785 675.729C112.62 674.897 115.837 676.152 115.837 678.87C115.837 679.848 116.152 680.648 116.537 680.648C118.057 680.648 131.833 672.263 138.259 667.426C153.873 655.674 164.692 644.604 180.837 623.858C188.272 614.303 199.146 603.972 205.596 600.336C212.715 596.323 219.251 594.279 233.898 591.485C250.065 588.401 255.414 586.377 260.299 581.491C267.616 574.174 271.25 564.547 276.485 538.616C281.04 516.047 287.808 497.531 296.858 482.874C308.551 463.935 308.18 464.838 308.18 455.306C308.18 446.908 308.063 446.416 303.938 437.617C299.011 427.106 297.176 420.542 296.337 410.444C294.991 394.221 299.846 375.873 311.659 352.533C318.263 339.486 319.652 337.402 325.676 331.509C332.057 325.267 332.481 324.59 334.956 316.694C337.238 309.416 339.594 304.491 349.24 286.84C351.505 282.698 351.505 282.698 348.175 260.138C344.717 236.71 343.028 219.311 343.028 207.126C343.028 203.215 342.657 200.016 342.204 200.016C341.75 200.016 337.576 201.017 332.926 202.24C328.277 203.462 315.512 206.311 304.56 208.568C283.891 212.829 270.774 215.829 270.234 216.419C270.061 216.607 267.79 221.038 265.187 226.265C257.949 240.8 253.369 247.033 238.748 262.244C221.264 280.434 210.139 295.028 204.386 307.322C200.99 314.579 201.464 316.455 209.22 326.46C214.697 333.525 214.697 333.525 214.304 345.434C214.002 354.574 213.556 357.884 212.388 359.667C211.491 361.037 207.655 363.523 203.05 365.721C198.752 367.773 193.602 370.634 191.606 372.079C185.359 376.605 183.254 375.791 165.621 362.034C153.699 352.734 153.809 355.707 164.275 325.709C169.201 311.588 175.361 295.505 177.963 289.968C180.566 284.432 186.551 271.195 191.263 260.551C207.414 224.073 215.146 209.143 226.476 192.557C232.64 183.535 236.577 180.307 249.47 173.703C259.77 168.427 264.252 165.173 276.048 154.403C292.744 139.158 301.985 134.531 318.654 133.068C328.648 132.191 328.648 132.191 335.825 125.524C356.62 106.205 383.369 100.275 403.746 110.466C406.523 111.855 410.697 114.443 413.021 116.217C417.247 119.442 417.247 119.442 427.884 118.904C433.734 118.607 442.781 118.305 447.988 118.232C457.455 118.1 457.455 118.1 458.108 114.932C458.467 113.189 458.379 107.691 457.911 102.712C456.002 82.3719 455.881 71.3816 457.476 62.9529C458.317 58.5096 459.553 53.8254 460.223 52.5437Z"/>
</mask>
<path d="M460.223 52.5437C465.042 43.3239 485.617 34.7205 511.182 31.2348C533.967 28.1283 544.759 30.7541 549.59 40.5822C551.372 44.2073 551.667 46.2729 551.739 55.6448C551.801 63.6245 552.218 67.389 553.311 69.832C554.13 71.6613 554.72 74.9977 554.622 77.2461C554.474 80.6404 554.936 81.9465 557.343 84.9416C560.955 89.4366 562.469 92.6834 561.784 94.4674C561.495 95.2232 559.608 96.6832 557.593 97.7114C554.193 99.4457 553.925 99.8585 553.895 103.409C553.878 105.516 553.323 109.497 552.662 112.26C551.933 115.307 551.635 120.004 551.905 124.206C552.339 130.976 552.287 131.194 549.587 133.894C546.921 136.56 546.548 136.655 538.736 136.655C526.58 136.655 522.488 137.398 521.886 139.71C521.611 140.768 518.697 145.91 515.412 151.138C508.081 162.798 508.075 163.982 515.272 175.414C517.992 179.735 520.925 184.664 521.789 186.367C523.155 189.062 523.473 189.261 524.237 187.896C524.975 186.578 525.933 186.42 530.243 186.912C547.505 188.88 562.078 196.982 570.594 209.347C572.465 212.063 575.334 217.693 576.971 221.859C579.946 229.433 579.946 229.433 587.529 233.141C605.083 241.726 610.762 256.773 607.251 285.399C606.712 289.795 606.481 293.602 606.738 293.859C607.228 294.349 622.635 285.194 630.412 279.793C640.976 272.454 649.623 261.976 654.301 250.842C657.278 243.759 657.053 241.576 652.709 235.383C650.633 232.423 647.414 226.819 645.556 222.928C642.594 216.725 642.19 215.074 642.268 209.491C642.378 201.608 643.475 199.441 647.97 198.231C651.467 197.288 651.467 197.288 651.868 191.742C652.341 185.207 653.748 183.723 659.477 183.723C663.878 183.723 685.474 187.861 687.93 189.176C691.79 191.242 697.846 204.194 697.846 210.386C697.846 213.376 692.456 240.798 690.657 246.955C690.169 248.626 688.196 252.088 686.273 254.648C680.804 261.925 675.508 271.529 668.323 287.2C654.331 317.718 642.28 335.602 624.248 352.612C613.026 363.195 606.714 367.015 600.447 367.015C597.098 367.015 595.208 366.52 593.844 365.285C592.793 364.335 591.734 363.756 591.49 363.998C591.248 364.242 588.999 379.684 586.496 398.313C583.992 416.943 575.35 533.907 575.129 534.529C580.428 532.733 582.41 533.443 592.182 540.637C597.915 544.857 598.192 545.22 596.555 546.366C594.394 547.881 590.636 553.826 591.374 554.565C591.672 554.863 593.941 553.212 596.417 550.896C599.733 547.795 601.643 546.687 603.672 546.687C606.934 546.687 607.275 548.353 604.523 550.844C602.5 552.675 599.657 557.548 600.612 557.548C600.926 557.548 603.22 555.716 605.712 553.475C608.829 550.673 611.042 549.402 612.806 549.402C616.514 549.402 616.768 550.687 613.674 553.782C611.368 556.088 610.004 559.359 611.349 559.359C611.568 559.359 613.629 557.729 615.93 555.738C618.765 553.284 620.971 552.118 622.774 552.118C625.948 552.118 626.098 553.103 623.462 556.669C620.497 560.678 622.153 560.947 626.924 557.23C633.268 552.287 637.792 552.934 634.975 558.382C632.86 562.472 633.275 562.726 636.682 559.424C639.722 556.477 639.886 556.432 645.054 557.169C651.533 558.093 658.496 557.8 670.006 556.12C683.047 554.217 693.967 554.407 697.562 556.598C702.481 559.598 704.86 565.94 702.86 570.726C697.42 583.746 665.779 603.686 637.326 612.026C628.476 614.62 626.525 614.861 613.215 614.996C597.467 615.156 594.952 615.674 586.001 620.591C582.981 622.249 578.093 624.444 575.139 625.468C568.446 627.787 550.859 630.865 544.305 630.865C532.305 630.865 527.496 624.565 529.698 611.727C530.697 605.902 530.593 604.956 527.748 594.007C522.333 573.163 522.189 570.582 526.286 567.897C529.01 566.112 530.313 566.776 533.955 571.805C532.34 556.575 544.305 442 524.573 424.234C513.319 414.101 513.98 374.437 513.319 358.962C512.743 345.477 512.743 345.477 506.261 353.984C489.735 375.668 470.693 394.902 453.555 407.224C440.297 416.755 439.63 417.512 436.754 426.302C431.78 441.502 410.675 491.114 400.859 510.681C382.651 546.975 365.977 569.821 342.123 591.153C336.316 596.347 333.338 599.895 329.977 605.624C315.139 630.919 312.243 633.279 289.025 639.006C271.177 643.409 268.528 644.5 238.968 659.604C198.486 680.289 172.475 694.979 146.896 711.603C137.087 717.979 135.69 719.187 136.217 720.838C137.843 725.925 137.71 727.755 135.43 731.646C133.015 735.765 124.893 743.74 120.419 746.383C119.008 747.216 117.2 749.27 116.399 750.949C115.159 753.551 114.606 753.918 112.664 753.43C110.818 752.967 110.492 753.136 110.946 754.319C111.254 755.122 111.251 756.797 110.939 758.04C110.489 759.833 109.799 760.301 107.613 760.301C105.321 760.301 104.945 760.591 105.395 762.007C105.693 762.946 105.439 764.803 104.833 766.136C103.974 768.02 103.278 768.445 101.697 768.048C99.9441 767.609 99.6753 767.885 99.7369 770.068C99.7821 771.645 98.2416 774.965 95.6411 778.895C92.2432 784.031 90.7089 787.845 87.3282 799.561C82.0304 817.919 81.2094 819.83 78.1111 821.008C74.362 822.433 67.3037 822.357 65.4997 820.873C63.0051 818.821 59.2804 809.62 56.002 797.412C53.1436 786.768 52.9716 785.294 53.0947 772.521C53.2259 758.967 55.2661 746.815 58.903 737.922C59.9828 735.283 59.7575 733.679 56.5523 721.177C53.406 708.899 53.0069 706.134 52.9924 696.488C52.9743 683.786 54.1166 679.08 58.3373 674.474C61.0346 671.531 61.861 671.163 65.7495 671.173C68.1572 671.18 74.4036 672.363 79.6308 673.803C89.5549 676.535 99.2436 677.199 107.785 675.729C112.62 674.897 115.837 676.152 115.837 678.87C115.837 679.848 116.152 680.648 116.537 680.648C118.057 680.648 131.833 672.263 138.259 667.426C153.873 655.674 164.692 644.604 180.837 623.858C188.272 614.303 199.146 603.972 205.596 600.336C212.715 596.323 219.251 594.279 233.898 591.485C250.065 588.401 255.414 586.377 260.299 581.491C267.616 574.174 271.25 564.547 276.485 538.616C281.04 516.047 287.808 497.531 296.858 482.874C308.551 463.935 308.18 464.838 308.18 455.306C308.18 446.908 308.063 446.416 303.938 437.617C299.011 427.106 297.176 420.542 296.337 410.444C294.991 394.221 299.846 375.873 311.659 352.533C318.263 339.486 319.652 337.402 325.676 331.509C332.057 325.267 332.481 324.59 334.956 316.694C337.238 309.416 339.594 304.491 349.24 286.84C351.505 282.698 351.505 282.698 348.175 260.138C344.717 236.71 343.028 219.311 343.028 207.126C343.028 203.215 342.657 200.016 342.204 200.016C341.75 200.016 337.576 201.017 332.926 202.24C328.277 203.462 315.512 206.311 304.56 208.568C283.891 212.829 270.774 215.829 270.234 216.419C270.061 216.607 267.79 221.038 265.187 226.265C257.949 240.8 253.369 247.033 238.748 262.244C221.264 280.434 210.139 295.028 204.386 307.322C200.99 314.579 201.464 316.455 209.22 326.46C214.697 333.525 214.697 333.525 214.304 345.434C214.002 354.574 213.556 357.884 212.388 359.667C211.491 361.037 207.655 363.523 203.05 365.721C198.752 367.773 193.602 370.634 191.606 372.079C185.359 376.605 183.254 375.791 165.621 362.034C153.699 352.734 153.809 355.707 164.275 325.709C169.201 311.588 175.361 295.505 177.963 289.968C180.566 284.432 186.551 271.195 191.263 260.551C207.414 224.073 215.146 209.143 226.476 192.557C232.64 183.535 236.577 180.307 249.47 173.703C259.77 168.427 264.252 165.173 276.048 154.403C292.744 139.158 301.985 134.531 318.654 133.068C328.648 132.191 328.648 132.191 335.825 125.524C356.62 106.205 383.369 100.275 403.746 110.466C406.523 111.855 410.697 114.443 413.021 116.217C417.247 119.442 417.247 119.442 427.884 118.904C433.734 118.607 442.781 118.305 447.988 118.232C457.455 118.1 457.455 118.1 458.108 114.932C458.467 113.189 458.379 107.691 457.911 102.712C456.002 82.3719 455.881 71.3816 457.476 62.9529C458.317 58.5096 459.553 53.8254 460.223 52.5437Z" fill="#0C0052"/>
<path d="M460.223 52.5437C465.042 43.3239 485.617 34.7205 511.182 31.2348C533.967 28.1283 544.759 30.7541 549.59 40.5822C551.372 44.2073 551.667 46.2729 551.739 55.6448C551.801 63.6245 552.218 67.389 553.311 69.832C554.13 71.6613 554.72 74.9977 554.622 77.2461C554.474 80.6404 554.936 81.9465 557.343 84.9416C560.955 89.4366 562.469 92.6834 561.784 94.4674C561.495 95.2232 559.608 96.6832 557.593 97.7114C554.193 99.4457 553.925 99.8585 553.895 103.409C553.878 105.516 553.323 109.497 552.662 112.26C551.933 115.307 551.635 120.004 551.905 124.206C552.339 130.976 552.287 131.194 549.587 133.894C546.921 136.56 546.548 136.655 538.736 136.655C526.58 136.655 522.488 137.398 521.886 139.71C521.611 140.768 518.697 145.91 515.412 151.138C508.081 162.798 508.075 163.982 515.272 175.414C517.992 179.735 520.925 184.664 521.789 186.367C523.155 189.062 523.473 189.261 524.237 187.896C524.975 186.578 525.933 186.42 530.243 186.912C547.505 188.88 562.078 196.982 570.594 209.347C572.465 212.063 575.334 217.693 576.971 221.859C579.946 229.433 579.946 229.433 587.529 233.141C605.083 241.726 610.762 256.773 607.251 285.399C606.712 289.795 606.481 293.602 606.738 293.859C607.228 294.349 622.635 285.194 630.412 279.793C640.976 272.454 649.623 261.976 654.301 250.842C657.278 243.759 657.053 241.576 652.709 235.383C650.633 232.423 647.414 226.819 645.556 222.928C642.594 216.725 642.19 215.074 642.268 209.491C642.378 201.608 643.475 199.441 647.97 198.231C651.467 197.288 651.467 197.288 651.868 191.742C652.341 185.207 653.748 183.723 659.477 183.723C663.878 183.723 685.474 187.861 687.93 189.176C691.79 191.242 697.846 204.194 697.846 210.386C697.846 213.376 692.456 240.798 690.657 246.955C690.169 248.626 688.196 252.088 686.273 254.648C680.804 261.925 675.508 271.529 668.323 287.2C654.331 317.718 642.28 335.602 624.248 352.612C613.026 363.195 606.714 367.015 600.447 367.015C597.098 367.015 595.208 366.52 593.844 365.285C592.793 364.335 591.734 363.756 591.49 363.998C591.248 364.242 588.999 379.684 586.496 398.313C583.992 416.943 575.35 533.907 575.129 534.529C580.428 532.733 582.41 533.443 592.182 540.637C597.915 544.857 598.192 545.22 596.555 546.366C594.394 547.881 590.636 553.826 591.374 554.565C591.672 554.863 593.941 553.212 596.417 550.896C599.733 547.795 601.643 546.687 603.672 546.687C606.934 546.687 607.275 548.353 604.523 550.844C602.5 552.675 599.657 557.548 600.612 557.548C600.926 557.548 603.22 555.716 605.712 553.475C608.829 550.673 611.042 549.402 612.806 549.402C616.514 549.402 616.768 550.687 613.674 553.782C611.368 556.088 610.004 559.359 611.349 559.359C611.568 559.359 613.629 557.729 615.93 555.738C618.765 553.284 620.971 552.118 622.774 552.118C625.948 552.118 626.098 553.103 623.462 556.669C620.497 560.678 622.153 560.947 626.924 557.23C633.268 552.287 637.792 552.934 634.975 558.382C632.86 562.472 633.275 562.726 636.682 559.424C639.722 556.477 639.886 556.432 645.054 557.169C651.533 558.093 658.496 557.8 670.006 556.12C683.047 554.217 693.967 554.407 697.562 556.598C702.481 559.598 704.86 565.94 702.86 570.726C697.42 583.746 665.779 603.686 637.326 612.026C628.476 614.62 626.525 614.861 613.215 614.996C597.467 615.156 594.952 615.674 586.001 620.591C582.981 622.249 578.093 624.444 575.139 625.468C568.446 627.787 550.859 630.865 544.305 630.865C532.305 630.865 527.496 624.565 529.698 611.727C530.697 605.902 530.593 604.956 527.748 594.007C522.333 573.163 522.189 570.582 526.286 567.897C529.01 566.112 530.313 566.776 533.955 571.805C532.34 556.575 544.305 442 524.573 424.234C513.319 414.101 513.98 374.437 513.319 358.962C512.743 345.477 512.743 345.477 506.261 353.984C489.735 375.668 470.693 394.902 453.555 407.224C440.297 416.755 439.63 417.512 436.754 426.302C431.78 441.502 410.675 491.114 400.859 510.681C382.651 546.975 365.977 569.821 342.123 591.153C336.316 596.347 333.338 599.895 329.977 605.624C315.139 630.919 312.243 633.279 289.025 639.006C271.177 643.409 268.528 644.5 238.968 659.604C198.486 680.289 172.475 694.979 146.896 711.603C137.087 717.979 135.69 719.187 136.217 720.838C137.843 725.925 137.71 727.755 135.43 731.646C133.015 735.765 124.893 743.74 120.419 746.383C119.008 747.216 117.2 749.27 116.399 750.949C115.159 753.551 114.606 753.918 112.664 753.43C110.818 752.967 110.492 753.136 110.946 754.319C111.254 755.122 111.251 756.797 110.939 758.04C110.489 759.833 109.799 760.301 107.613 760.301C105.321 760.301 104.945 760.591 105.395 762.007C105.693 762.946 105.439 764.803 104.833 766.136C103.974 768.02 103.278 768.445 101.697 768.048C99.9441 767.609 99.6753 767.885 99.7369 770.068C99.7821 771.645 98.2416 774.965 95.6411 778.895C92.2432 784.031 90.7089 787.845 87.3282 799.561C82.0304 817.919 81.2094 819.83 78.1111 821.008C74.362 822.433 67.3037 822.357 65.4997 820.873C63.0051 818.821 59.2804 809.62 56.002 797.412C53.1436 786.768 52.9716 785.294 53.0947 772.521C53.2259 758.967 55.2661 746.815 58.903 737.922C59.9828 735.283 59.7575 733.679 56.5523 721.177C53.406 708.899 53.0069 706.134 52.9924 696.488C52.9743 683.786 54.1166 679.08 58.3373 674.474C61.0346 671.531 61.861 671.163 65.7495 671.173C68.1572 671.18 74.4036 672.363 79.6308 673.803C89.5549 676.535 99.2436 677.199 107.785 675.729C112.62 674.897 115.837 676.152 115.837 678.87C115.837 679.848 116.152 680.648 116.537 680.648C118.057 680.648 131.833 672.263 138.259 667.426C153.873 655.674 164.692 644.604 180.837 623.858C188.272 614.303 199.146 603.972 205.596 600.336C212.715 596.323 219.251 594.279 233.898 591.485C250.065 588.401 255.414 586.377 260.299 581.491C267.616 574.174 271.25 564.547 276.485 538.616C281.04 516.047 287.808 497.531 296.858 482.874C308.551 463.935 308.18 464.838 308.18 455.306C308.18 446.908 308.063 446.416 303.938 437.617C299.011 427.106 297.176 420.542 296.337 410.444C294.991 394.221 299.846 375.873 311.659 352.533C318.263 339.486 319.652 337.402 325.676 331.509C332.057 325.267 332.481 324.59 334.956 316.694C337.238 309.416 339.594 304.491 349.24 286.84C351.505 282.698 351.505 282.698 348.175 260.138C344.717 236.71 343.028 219.311 343.028 207.126C343.028 203.215 342.657 200.016 342.204 200.016C341.75 200.016 337.576 201.017 332.926 202.24C328.277 203.462 315.512 206.311 304.56 208.568C283.891 212.829 270.774 215.829 270.234 216.419C270.061 216.607 267.79 221.038 265.187 226.265C257.949 240.8 253.369 247.033 238.748 262.244C221.264 280.434 210.139 295.028 204.386 307.322C200.99 314.579 201.464 316.455 209.22 326.46C214.697 333.525 214.697 333.525 214.304 345.434C214.002 354.574 213.556 357.884 212.388 359.667C211.491 361.037 207.655 363.523 203.05 365.721C198.752 367.773 193.602 370.634 191.606 372.079C185.359 376.605 183.254 375.791 165.621 362.034C153.699 352.734 153.809 355.707 164.275 325.709C169.201 311.588 175.361 295.505 177.963 289.968C180.566 284.432 186.551 271.195 191.263 260.551C207.414 224.073 215.146 209.143 226.476 192.557C232.64 183.535 236.577 180.307 249.47 173.703C259.77 168.427 264.252 165.173 276.048 154.403C292.744 139.158 301.985 134.531 318.654 133.068C328.648 132.191 328.648 132.191 335.825 125.524C356.62 106.205 383.369 100.275 403.746 110.466C406.523 111.855 410.697 114.443 413.021 116.217C417.247 119.442 417.247 119.442 427.884 118.904C433.734 118.607 442.781 118.305 447.988 118.232C457.455 118.1 457.455 118.1 458.108 114.932C458.467 113.189 458.379 107.691 457.911 102.712C456.002 82.3719 455.881 71.3816 457.476 62.9529C458.317 58.5096 459.553 53.8254 460.223 52.5437Z" stroke="white" stroke-width="40" mask="url(#path-2-outside-1_44_26)"/>
<path fill-rule="evenodd" clip-rule="evenodd" d="M533.907 49.4461C537.155 51.0681 540.097 53.331 541.277 55.1132C543.306 58.1799 548.188 71.6331 547.515 72.3065C547.306 72.5156 545.269 71.4023 542.988 69.8336C537.07 65.7623 533.238 64.3656 527.983 64.3656C523.216 64.3656 517.246 66.672 518.617 67.9835C519.048 68.3954 521.844 69.9667 524.831 71.4756C527.818 72.9845 531.872 75.871 533.84 77.8913C535.808 79.9106 537.822 81.5634 538.316 81.5634C538.81 81.5634 540.333 80.4926 541.7 79.1829C543.117 77.8252 544.764 77.025 545.536 77.321C547.318 78.0053 556.159 90.6248 555.548 91.6133C555.288 92.0351 553.291 92.1355 551.109 91.8359C545.873 91.1182 540.671 92.1238 540.671 93.8526C540.671 95.2311 541.184 95.5135 545.319 96.4142C547.166 96.8161 547.806 97.599 548.153 99.8836C548.4 101.507 548.459 103.081 548.284 103.382C548.11 103.683 545.816 103.581 543.188 103.155C538.137 102.335 533.43 102.87 533.43 104.264C533.43 104.723 534.665 105.097 536.175 105.097C539.554 105.097 544.315 107.015 546.011 109.06C547.078 110.345 547.089 111.159 546.083 114.207C545.038 117.375 545.084 118.235 546.452 121.106C549.145 126.752 546.836 126.759 531.62 121.151C516.878 115.718 503.574 109.497 500.83 106.754C499.383 105.306 497.929 102.683 497.598 100.925C497.269 99.1658 495.972 96.5074 494.719 95.0175C492.516 92.3998 492.254 92.3283 486.911 92.9013C482.029 93.4236 481.078 93.2543 478.785 91.4494C475.327 88.7295 473.69 84.5233 473.69 78.3547C473.69 73.9502 474.041 72.9274 476.336 70.632C479.432 67.5373 482.029 67.273 484.552 69.7965C486.811 72.0549 486.94 73.8534 484.779 72.9446C483.908 72.5789 482.283 72.0811 481.169 71.8394C478.505 71.2611 477.484 73.8235 479.494 76.0448C480.623 77.292 480.857 78.676 480.446 81.6684C479.9 85.6366 479.9 85.6366 481.773 83.4995C482.804 82.3247 483.647 80.7913 483.647 80.0926C483.647 79.1757 484.59 79.4454 487.041 81.0656C488.909 82.2993 493.346 83.9195 496.903 84.6663C500.46 85.413 505.552 86.8531 508.217 87.8669C510.883 88.8797 513.369 89.7088 513.743 89.7088C515.871 89.7107 513.577 86.4268 507.181 80.3161C503.198 76.5109 499.94 72.8043 499.94 72.0793C499.94 70.4645 508.288 64.0398 512.879 62.1218C514.723 61.3515 516.231 60.421 516.23 60.0544C516.228 59.6869 514.636 56.7434 512.69 53.5129C510.744 50.2816 509.371 47.2846 509.639 46.852C509.906 46.4193 514.259 46.2193 519.313 46.4057C527.307 46.7017 529.203 47.0973 533.907 49.4461ZM482.91 105.036C486.894 108.168 488.627 116.304 488.614 131.799C488.603 144.212 488.343 146.385 485.581 157.143C483.92 163.615 482.281 169.418 481.939 170.038C481.501 170.831 479.265 169.687 474.418 166.191C470.624 163.455 467.251 161.216 466.922 161.216C466.163 161.216 476.288 173.483 479.899 176.938C482.21 179.148 483.663 179.641 489.692 180.256C498.768 181.182 503.53 182.833 515.78 189.299C521.256 192.19 527.869 195.176 530.475 195.936C544.113 199.91 558.699 210.763 564.151 220.991C565.77 224.029 566.943 226.666 566.759 226.85C566.135 227.475 554.732 229.089 550.9 229.095C547.261 229.102 546.923 228.857 542.979 223.329C536.843 214.729 536.15 214.364 536.126 219.714C536.115 222.139 535.357 225.771 534.443 227.785C532.647 231.738 535.27 231.005 488.399 240.661C486.363 241.08 486.363 241.08 486.363 218.4C486.363 205.887 485.996 195.492 485.545 195.214C485.096 194.936 484.313 195.901 483.805 197.357C480.998 205.41 471.534 216.724 465.092 219.731C459.553 222.316 454.837 222.41 447.31 220.083C436.635 216.784 430.124 211.583 416.655 195.594C406.821 183.919 399.424 176.81 393.498 173.337C391.306 172.052 389.512 170.655 389.512 170.233C389.512 169.812 392.465 167.186 396.074 164.398C399.683 161.611 404.572 157.827 406.936 155.992C409.3 154.155 411.235 152.182 411.235 151.606C411.235 150.857 404.189 150.372 386.344 149.894C372.653 149.527 361.452 148.881 361.452 148.458C361.452 148.036 363.794 147.039 366.657 146.244C369.52 145.45 372.371 144.637 372.993 144.438C374.36 144 374.51 142.208 373.18 142.208C370.954 142.208 346.521 139.345 346.225 139.049C344.21 137.034 357.692 123.368 365.472 119.54C381.225 111.788 396.178 114.917 421.683 131.305C437.164 141.251 439.294 142.511 439.793 142.012C440.024 141.78 438.174 138.897 435.682 135.603C433.188 132.31 431.149 129.395 431.149 129.123C431.149 128.448 445.137 128.498 446.914 129.18C447.837 129.534 448.346 130.84 448.346 132.844C448.346 135.778 453.129 144.762 455.457 146.201C455.99 146.53 461.048 137.565 467.401 125.029C473.461 113.071 478.93 103.287 479.554 103.287C480.178 103.287 481.687 104.074 482.91 105.036ZM321.322 143.34C318.098 150.66 316.171 156.071 315.668 159.215C315.071 162.951 315.11 163.027 317.663 163.029C322.901 163.036 336.444 165.898 343.763 168.546C356.187 173.042 356.187 173.049 343.259 177.303C337.086 179.336 328.849 181.435 324.955 181.969C316.17 183.173 294.67 183.275 295.874 182.105C296.593 181.407 310.801 174.176 318.91 170.381C323.211 168.368 306.302 170.098 297.639 172.557C283.161 176.667 257.977 190.169 241.657 202.572C238.744 204.785 236.169 206.402 235.933 206.166C234.546 204.779 247.819 185.193 253.457 180.308C255.852 178.231 263.27 173.817 269.939 170.497C279.203 165.887 283.55 163.099 288.354 158.691C296.461 151.252 304.28 146.233 311.161 144.05C317.663 141.988 322.051 141.681 321.322 143.34ZM674.481 190.701C681.366 191.727 684.899 192.65 685.228 193.507C685.497 194.21 685.545 194.958 685.334 195.17C684.576 195.927 659.264 193.277 658.329 192.342C657.805 191.818 657.65 190.675 657.985 189.803C658.446 188.6 659.274 188.332 661.409 188.694C662.957 188.956 668.839 189.86 674.481 190.701ZM688.617 199.793C689.456 200.114 690.02 201.429 690.02 203.059C690.02 205.787 690.02 205.787 678.48 205.182C672.132 204.851 665.86 204.371 664.542 204.117C662.166 203.659 660.566 200.758 661.688 198.943C662.253 198.027 685.966 198.775 688.617 199.793ZM654.35 205.73C655.749 208.434 655.741 208.677 654.2 209.803C652.161 211.294 649.092 211.346 647.66 209.913C645.977 208.231 646.307 203.96 648.157 203.477C651.757 202.536 652.918 202.958 654.35 205.73ZM691.831 212.184C691.831 216.902 690.215 218.439 686.406 217.341C684.667 216.84 680.543 216.43 677.242 216.43C666.531 216.43 663.453 214.975 665.617 210.934C666.47 209.338 667.635 209.189 679.19 209.189C691.831 209.189 691.831 209.189 691.831 212.184ZM428.653 229.961C433.888 231.927 442.392 234.383 447.553 235.417C464.033 238.721 463.734 238.587 463.734 242.671C463.734 244.62 463.27 247.232 462.703 248.477C461.619 250.856 461.235 251.071 447.258 257.133C419.819 269.034 393.614 290.272 356.202 330.931C351.163 336.407 347.024 340.443 347.004 339.898C346.902 336.983 360.916 319.271 376.31 302.855C385.284 293.287 385.284 293.287 379.252 278.156C375.934 269.833 373.219 262.772 373.219 262.463C373.219 262.156 379.024 264.035 386.118 266.641C393.211 269.246 399.139 271.069 399.289 270.691C399.439 270.314 395.24 261.369 389.958 250.813C384.676 240.258 380.553 231.424 380.794 231.181C381.037 230.94 384.421 233.33 388.315 236.495C400.017 246.003 418.477 256.979 418.477 254.427C418.477 253.906 415.422 249 411.688 243.526C405.795 234.884 403.787 230.913 405.312 230.913C405.538 230.913 407.262 231.956 409.142 233.232C412.321 235.389 426.93 242.679 428.074 242.679C428.354 242.679 426.385 239.522 423.697 235.665C417.541 226.828 417.284 226.387 418.3 226.387C418.76 226.387 423.419 227.995 428.653 229.961ZM579.126 242.362C584.999 244.363 590.725 250.275 592.814 256.496C595.081 263.244 594.747 271.536 590.987 301.967C589.203 316.404 587.742 328.492 587.741 328.83C587.74 329.166 585.342 330.899 582.412 332.678C576.036 336.551 577.078 330.745 573.229 383.882C571.697 405.04 570.274 422.861 570.068 423.483C569.843 424.16 568.091 424.614 565.702 424.614C563.507 424.614 561.3 424.105 560.799 423.483C560.185 422.721 560.283 410.962 561.099 387.503C561.765 368.336 562.33 349.35 562.352 345.311C562.395 337.967 562.395 337.967 557.19 335.674C546.828 331.109 547.912 328.549 547.912 357.572C547.912 371.545 547.555 382.977 547.119 382.977C545.242 382.977 539.938 366.369 536.663 350.237C534.15 337.851 533.36 330.246 533.346 318.236C533.329 305.04 534.968 295.176 538.509 287.169C545.017 272.455 541.939 267.884 530.262 274.923C522.694 279.484 510.153 289.044 499.661 298.25C494.778 302.534 490.554 306.04 490.275 306.04C488.968 306.04 503.289 288.273 509.708 281.928C514.875 276.823 514.875 276.823 511.762 277.414C507.347 278.25 495.789 283.383 486.738 288.526C478.056 293.459 460.7 306.099 454.993 311.646C452.924 313.657 450.798 315.035 450.269 314.708C449.74 314.382 448.277 310.851 447.017 306.862C445.147 300.943 444.726 297.789 444.726 289.7C444.726 284.25 444.535 279.791 444.301 279.791C443.121 279.791 428.64 288.919 427.075 290.649C425.503 292.387 425.224 294.191 424.947 304.371C424.318 327.516 429.782 347.237 441.451 363.939C443.7 367.158 445.376 369.957 445.175 370.158C444.519 370.813 437.648 364.886 432.613 359.323C422.569 348.224 417.268 333.095 416.084 312.149C415.579 303.211 415.25 301.514 414.021 301.514C411.919 301.514 396.881 313.035 386.546 322.563C381.676 327.054 377.513 330.549 377.296 330.331C375.735 328.77 393.766 308.661 405.633 298.728C436.526 272.872 474.895 255.903 526.248 245.383C552.705 239.963 569.302 239.015 579.126 242.362ZM557.417 265.209C555.425 266.127 552.789 267.973 551.558 269.308C549.43 271.618 549.285 272.499 548.597 287.304C547.857 303.218 548.265 311.425 549.952 314.639C551.376 317.351 565.265 331.384 566.526 331.384C567.128 331.384 571.07 327.759 575.287 323.328C584.459 313.689 584.617 313.226 585.955 292.017C586.88 277.357 586.849 276.774 584.951 272.853C583.042 268.909 578.683 265.246 574.388 263.978C571.629 263.163 571.827 263.959 575.115 266.905C579.379 270.726 580.689 279.114 578.567 289.009C577.147 295.631 573.074 299.704 567.871 299.704C558.751 299.704 555.632 295.197 555.658 282.053C555.678 272.052 557.235 266.824 560.502 265.787C561.543 265.457 562.395 264.807 562.395 264.342C562.395 263.155 561.548 263.301 557.417 265.209Z" fill="white"/>
<path d="M203.159 331.901C201.153 329.623 197.534 326.307 195.117 324.532C188.057 319.35 187.999 319.842 194.375 330.81C199.111 338.956 199.111 338.956 199.111 348.687C199.111 354.039 199.233 358.417 199.382 358.417C200.252 358.417 205.554 355.286 206.112 354.443C206.478 353.891 206.783 349.525 206.791 344.741C206.804 336.044 206.804 336.044 203.159 331.901L203.159 331.901Z" fill="white"/>
</g>
<defs>
<filter id="filter0_d_44_26" x="59" y="71" width="761" height="782" filterUnits="userSpaceOnUse" color-interpolation-filters="sRGB">
<feFlood flood-opacity="0" result="BackgroundImageFix"/>
<feColorMatrix in="SourceAlpha" type="matrix" values="0 0 0 0 0 0 0 0 0 0 0 0 0 0 0 0 0 0 127 0" result="hardAlpha"/>
<feOffset dx="-31" dy="37"/>
<feComposite in2="hardAlpha" operator="out"/>
<feColorMatrix type="matrix" values="0 0 0 0 0 0 0 0 0 0 0 0 0 0 0 0 0 0 0.25 0"/>
<feBlend mode="normal" in2="BackgroundImageFix" result="effect1_dropShadow_44_26"/>
<feBlend mode="normal" in="SourceGraphic" in2="effect1_dropShadow_44_26" result="shape"/>
</filter>
<filter id="filter1_d_44_26" x="1.99219" y="10" width="721.621" height="869.033" filterUnits="userSpaceOnUse" color-interpolation-filters="sRGB">
<feFlood flood-opacity="0" result="BackgroundImageFix"/>
<feColorMatrix in="SourceAlpha" type="matrix" values="0 0 0 0 0 0 0 0 0 0 0 0 0 0 0 0 0 0 127 0" result="hardAlpha"/>
<feOffset dx="-31" dy="37"/>
<feComposite in2="hardAlpha" operator="out"/>
<feColorMatrix type="matrix" values="0 0 0 0 0 0 0 0 0 0 0 0 0 0 0 0 0 0 0.25 0"/>
<feBlend mode="normal" in2="BackgroundImageFix" result="effect1_dropShadow_44_26"/>
<feBlend mode="normal" in="SourceGraphic" in2="effect1_dropShadow_44_26" result="shape"/>
</filter>
<linearGradient id="paint0_linear_44_26" x1="244.336" y1="78.8776" x2="517.974" y2="757.677" gradientUnits="userSpaceOnUse">
<stop stop-color="#E7D3FF"/>
<stop offset="1" stop-color="#566EEF"/>
</linearGradient>
</defs>
</svg>
